<?xml version="1.0" standalone="no"?>
<!DOCTYPE svg PUBLIC "-//W3C//DTD SVG 1.1//EN" "http://www.w3.org/Graphics/SVG/1.1/DTD/svg11.dtd">
<svg width="561" height="408" viewBox="0 -408 561 408" xmlns="http://www.w3.org/2000/svg" version="1.1">
<title>OpenSCAD Model</title>
<path d="
M 423,-195 L 427,-195 L 427,-183 L 433,-183 L 433,-195 L 437,-195
 L 437,-183 L 440,-183 L 510,-408 L 350,-408 L 420,-183 L 423,-183
 z
M 433,-351 L 433,-363 L 437,-363 L 437,-351 z
M 423,-351 L 423,-363 L 427,-363 L 427,-351 z
M 423,-323 L 423,-335 L 427,-335 L 427,-323 z
M 433,-323 L 433,-335 L 437,-335 L 437,-323 z
M 433,-295 L 433,-307 L 437,-307 L 437,-295 z
M 423,-295 L 423,-307 L 427,-307 L 427,-295 z
M 433,-267 L 433,-279 L 437,-279 L 437,-267 z
M 423,-267 L 423,-279 L 427,-279 L 427,-267 z
M 423,-239 L 423,-251 L 427,-251 L 427,-239 z
M 433,-239 L 433,-251 L 437,-251 L 437,-239 z
M 433,-211 L 433,-223 L 437,-223 L 437,-211 z
M 423,-211 L 423,-223 L 427,-223 L 427,-211 z
M 345,-408 L 342,-408 L 342,-396 L 338,-396 L 338,-408 L 332,-408
 L 332,-396 L 328,-396 L 328,-408 L 325,-408 L 255,-183 L 415,-183
 z
M 338,-368 L 338,-380 L 342,-380 L 342,-368 z
M 328,-368 L 328,-380 L 332,-380 L 332,-368 z
M 328,-340 L 328,-352 L 332,-352 L 332,-340 z
M 338,-340 L 338,-352 L 342,-352 L 342,-340 z
M 338,-312 L 338,-324 L 342,-324 L 342,-312 z
M 328,-312 L 328,-324 L 332,-324 L 332,-312 z
M 338,-284 L 338,-296 L 342,-296 L 342,-284 z
M 328,-284 L 328,-296 L 332,-296 L 332,-284 z
M 338,-256 L 338,-268 L 342,-268 L 342,-256 z
M 328,-256 L 328,-268 L 332,-268 L 332,-256 z
M 328,-228 L 328,-240 L 332,-240 L 332,-228 z
M 338,-228 L 338,-240 L 342,-240 L 342,-228 z
M 246,-377 L 0,-377 L 0,-363 L 246,-363 z
M 36,-193.5 L 40,-193.5 L 40,-181.5 L 72,-181.5 L 72,-193.5 L 76,-193.5
 L 76,-181.5 L 108,-181.5 L 108,-193.5 L 112,-193.5 L 112,-181.5 L 144,-181.5
 L 144,-193.5 L 148,-193.5 L 148,-181.5 L 180,-181.5 L 180,-193.5 L 184,-193.5
 L 184,-181.5 L 216,-181.5 L 216,-193.5 L 220,-193.5 L 220,-181.5 L 254,-181.5
 L 254,-193.5 L 250,-193.5 L 250,-209.5 L 254,-209.5 L 254,-221.5 L 250,-221.5
 L 250,-237.5 L 254,-237.5 L 254,-249.5 L 250,-249.5 L 250,-265.5 L 254,-265.5
 L 254,-277.5 L 250,-277.5 L 250,-293.5 L 254,-293.5 L 254,-305.5 L 250,-305.5
 L 250,-321.5 L 254,-321.5 L 254,-333.5 L 250,-333.5 L 250,-349.5 L 254,-349.5
 L 254,-361.5 L 220,-361.5 L 220,-349.5 L 216,-349.5 L 216,-361.5 L 184,-361.5
 L 184,-349.5 L 180,-349.5 L 180,-361.5 L 148,-361.5 L 148,-349.5 L 144,-349.5
 L 144,-361.5 L 112,-361.5 L 112,-349.5 L 108,-349.5 L 108,-361.5 L 76,-361.5
 L 76,-349.5 L 72,-349.5 L 72,-361.5 L 40,-361.5 L 40,-349.5 L 36,-349.5
 L 36,-361.5 L 0,-361.5 L 0,-349.5 L 4,-349.5 L 4,-333.5 L 0,-333.5
 L 0,-321.5 L 4,-321.5 L 4,-305.5 L 0,-305.5 L 0,-293.5 L 4,-293.5
 L 4,-277.5 L 0,-277.5 L 0,-265.5 L 4,-265.5 L 4,-249.5 L 0,-249.5
 L 0,-237.5 L 4,-237.5 L 4,-221.5 L 0,-221.5 L 0,-209.5 L 4,-209.5
 L 4,-193.5 L 0,-193.5 L 0,-181.5 L 36,-181.5 z
M 17.6934,-334.068 L 15.1373,-334.612 L 12.75,-335.675 L 10.6359,-337.211 L 8.88728,-339.153 L 7.58067,-341.416
 L 6.77315,-343.901 L 6.5,-346.5 L 6.77315,-349.099 L 7.58067,-351.584 L 8.88728,-353.847 L 10.6359,-355.789
 L 12.75,-357.325 L 15.1373,-358.388 L 17.6934,-358.932 L 20.3066,-358.932 L 22.8627,-358.388 L 25.25,-357.325
 L 27.3641,-355.789 L 29.1127,-353.847 L 30.4193,-351.584 L 31.2268,-349.099 L 31.5,-346.5 L 31.2268,-343.901
 L 30.4193,-341.416 L 29.1127,-339.153 L 27.3641,-337.211 L 25.25,-335.675 L 22.8627,-334.612 L 20.3066,-334.068
 z
M 233.693,-334.068 L 231.137,-334.612 L 228.75,-335.675 L 226.636,-337.211 L 224.887,-339.153 L 223.581,-341.416
 L 222.773,-343.901 L 222.5,-346.5 L 222.773,-349.099 L 223.581,-351.584 L 224.887,-353.847 L 226.636,-355.789
 L 228.75,-357.325 L 231.137,-358.388 L 233.693,-358.932 L 236.307,-358.932 L 238.863,-358.388 L 241.25,-357.325
 L 243.364,-355.789 L 245.113,-353.847 L 246.419,-351.584 L 247.227,-349.099 L 247.5,-346.5 L 247.227,-343.901
 L 246.419,-341.416 L 245.113,-339.153 L 243.364,-337.211 L 241.25,-335.675 L 238.863,-334.612 L 236.307,-334.068
 z
M 197.693,-334.068 L 195.137,-334.612 L 192.75,-335.675 L 190.636,-337.211 L 188.887,-339.153 L 187.581,-341.416
 L 186.773,-343.901 L 186.5,-346.5 L 186.773,-349.099 L 187.581,-351.584 L 188.887,-353.847 L 190.636,-355.789
 L 192.75,-357.325 L 195.137,-358.388 L 197.693,-358.932 L 200.307,-358.932 L 202.863,-358.388 L 205.25,-357.325
 L 207.364,-355.789 L 209.113,-353.847 L 210.419,-351.584 L 211.227,-349.099 L 211.5,-346.5 L 211.227,-343.901
 L 210.419,-341.416 L 209.113,-339.153 L 207.364,-337.211 L 205.25,-335.675 L 202.863,-334.612 L 200.307,-334.068
 z
M 125.693,-334.068 L 123.137,-334.612 L 120.75,-335.675 L 118.636,-337.211 L 116.887,-339.153 L 115.581,-341.416
 L 114.773,-343.901 L 114.5,-346.5 L 114.773,-349.099 L 115.581,-351.584 L 116.887,-353.847 L 118.636,-355.789
 L 120.75,-357.325 L 123.137,-358.388 L 125.693,-358.932 L 128.307,-358.932 L 130.863,-358.388 L 133.25,-357.325
 L 135.364,-355.789 L 137.113,-353.847 L 138.419,-351.584 L 139.227,-349.099 L 139.5,-346.5 L 139.227,-343.901
 L 138.419,-341.416 L 137.113,-339.153 L 135.364,-337.211 L 133.25,-335.675 L 130.863,-334.612 L 128.307,-334.068
 z
M 53.6934,-334.068 L 51.1373,-334.612 L 48.75,-335.675 L 46.6359,-337.211 L 44.8873,-339.153 L 43.5807,-341.416
 L 42.7731,-343.901 L 42.5,-346.5 L 42.7731,-349.099 L 43.5807,-351.584 L 44.8873,-353.847 L 46.6359,-355.789
 L 48.75,-357.325 L 51.1373,-358.388 L 53.6934,-358.932 L 56.3066,-358.932 L 58.8627,-358.388 L 61.25,-357.325
 L 63.3641,-355.789 L 65.1127,-353.847 L 66.4193,-351.584 L 67.2268,-349.099 L 67.5,-346.5 L 67.2268,-343.901
 L 66.4193,-341.416 L 65.1127,-339.153 L 63.3641,-337.211 L 61.25,-335.675 L 58.8627,-334.612 L 56.3066,-334.068
 z
M 89.6934,-334.068 L 87.1373,-334.612 L 84.75,-335.675 L 82.6359,-337.211 L 80.8873,-339.153 L 79.5807,-341.416
 L 78.7731,-343.901 L 78.5,-346.5 L 78.7731,-349.099 L 79.5807,-351.584 L 80.8873,-353.847 L 82.6359,-355.789
 L 84.75,-357.325 L 87.1373,-358.388 L 89.6934,-358.932 L 92.3066,-358.932 L 94.8627,-358.388 L 97.25,-357.325
 L 99.3641,-355.789 L 101.113,-353.847 L 102.419,-351.584 L 103.227,-349.099 L 103.5,-346.5 L 103.227,-343.901
 L 102.419,-341.416 L 101.113,-339.153 L 99.3641,-337.211 L 97.25,-335.675 L 94.8627,-334.612 L 92.3066,-334.068
 z
M 161.693,-334.068 L 159.137,-334.612 L 156.75,-335.675 L 154.636,-337.211 L 152.887,-339.153 L 151.581,-341.416
 L 150.773,-343.901 L 150.5,-346.5 L 150.773,-349.099 L 151.581,-351.584 L 152.887,-353.847 L 154.636,-355.789
 L 156.75,-357.325 L 159.137,-358.388 L 161.693,-358.932 L 164.307,-358.932 L 166.863,-358.388 L 169.25,-357.325
 L 171.364,-355.789 L 173.113,-353.847 L 174.419,-351.584 L 175.227,-349.099 L 175.5,-346.5 L 175.227,-343.901
 L 174.419,-341.416 L 173.113,-339.153 L 171.364,-337.211 L 169.25,-335.675 L 166.863,-334.612 L 164.307,-334.068
 z
M 216,-321.5 L 216,-333.5 L 220,-333.5 L 220,-321.5 z
M 108,-321.5 L 108,-333.5 L 112,-333.5 L 112,-321.5 z
M 72,-321.5 L 72,-333.5 L 76,-333.5 L 76,-321.5 z
M 144,-321.5 L 144,-333.5 L 148,-333.5 L 148,-321.5 z
M 180,-321.5 L 180,-333.5 L 184,-333.5 L 184,-321.5 z
M 36,-321.5 L 36,-333.5 L 40,-333.5 L 40,-321.5 z
M 17.6934,-304.068 L 15.1373,-304.612 L 12.75,-305.675 L 10.6359,-307.211 L 8.88728,-309.153 L 7.58067,-311.416
 L 6.77315,-313.901 L 6.5,-316.5 L 6.77315,-319.099 L 7.58067,-321.584 L 8.88728,-323.847 L 10.6359,-325.789
 L 12.75,-327.325 L 15.1373,-328.388 L 17.6934,-328.932 L 20.3066,-328.932 L 22.8627,-328.388 L 25.25,-327.325
 L 27.3641,-325.789 L 29.1127,-323.847 L 30.4193,-321.584 L 31.2268,-319.099 L 31.5,-316.5 L 31.2268,-313.901
 L 30.4193,-311.416 L 29.1127,-309.153 L 27.3641,-307.211 L 25.25,-305.675 L 22.8627,-304.612 L 20.3066,-304.068
 z
M 53.6934,-304.068 L 51.1373,-304.612 L 48.75,-305.675 L 46.6359,-307.211 L 44.8873,-309.153 L 43.5807,-311.416
 L 42.7731,-313.901 L 42.5,-316.5 L 42.7731,-319.099 L 43.5807,-321.584 L 44.8873,-323.847 L 46.6359,-325.789
 L 48.75,-327.325 L 51.1373,-328.388 L 53.6934,-328.932 L 56.3066,-328.932 L 58.8627,-328.388 L 61.25,-327.325
 L 63.3641,-325.789 L 65.1127,-323.847 L 66.4193,-321.584 L 67.2268,-319.099 L 67.5,-316.5 L 67.2268,-313.901
 L 66.4193,-311.416 L 65.1127,-309.153 L 63.3641,-307.211 L 61.25,-305.675 L 58.8627,-304.612 L 56.3066,-304.068
 z
M 89.6934,-304.068 L 87.1373,-304.612 L 84.75,-305.675 L 82.6359,-307.211 L 80.8873,-309.153 L 79.5807,-311.416
 L 78.7731,-313.901 L 78.5,-316.5 L 78.7731,-319.099 L 79.5807,-321.584 L 80.8873,-323.847 L 82.6359,-325.789
 L 84.75,-327.325 L 87.1373,-328.388 L 89.6934,-328.932 L 92.3066,-328.932 L 94.8627,-328.388 L 97.25,-327.325
 L 99.3641,-325.789 L 101.113,-323.847 L 102.419,-321.584 L 103.227,-319.099 L 103.5,-316.5 L 103.227,-313.901
 L 102.419,-311.416 L 101.113,-309.153 L 99.3641,-307.211 L 97.25,-305.675 L 94.8627,-304.612 L 92.3066,-304.068
 z
M 125.693,-304.068 L 123.137,-304.612 L 120.75,-305.675 L 118.636,-307.211 L 116.887,-309.153 L 115.581,-311.416
 L 114.773,-313.901 L 114.5,-316.5 L 114.773,-319.099 L 115.581,-321.584 L 116.887,-323.847 L 118.636,-325.789
 L 120.75,-327.325 L 123.137,-328.388 L 125.693,-328.932 L 128.307,-328.932 L 130.863,-328.388 L 133.25,-327.325
 L 135.364,-325.789 L 137.113,-323.847 L 138.419,-321.584 L 139.227,-319.099 L 139.5,-316.5 L 139.227,-313.901
 L 138.419,-311.416 L 137.113,-309.153 L 135.364,-307.211 L 133.25,-305.675 L 130.863,-304.612 L 128.307,-304.068
 z
M 161.693,-304.068 L 159.137,-304.612 L 156.75,-305.675 L 154.636,-307.211 L 152.887,-309.153 L 151.581,-311.416
 L 150.773,-313.901 L 150.5,-316.5 L 150.773,-319.099 L 151.581,-321.584 L 152.887,-323.847 L 154.636,-325.789
 L 156.75,-327.325 L 159.137,-328.388 L 161.693,-328.932 L 164.307,-328.932 L 166.863,-328.388 L 169.25,-327.325
 L 171.364,-325.789 L 173.113,-323.847 L 174.419,-321.584 L 175.227,-319.099 L 175.5,-316.5 L 175.227,-313.901
 L 174.419,-311.416 L 173.113,-309.153 L 171.364,-307.211 L 169.25,-305.675 L 166.863,-304.612 L 164.307,-304.068
 z
M 233.693,-304.068 L 231.137,-304.612 L 228.75,-305.675 L 226.636,-307.211 L 224.887,-309.153 L 223.581,-311.416
 L 222.773,-313.901 L 222.5,-316.5 L 222.773,-319.099 L 223.581,-321.584 L 224.887,-323.847 L 226.636,-325.789
 L 228.75,-327.325 L 231.137,-328.388 L 233.693,-328.932 L 236.307,-328.932 L 238.863,-328.388 L 241.25,-327.325
 L 243.364,-325.789 L 245.113,-323.847 L 246.419,-321.584 L 247.227,-319.099 L 247.5,-316.5 L 247.227,-313.901
 L 246.419,-311.416 L 245.113,-309.153 L 243.364,-307.211 L 241.25,-305.675 L 238.863,-304.612 L 236.307,-304.068
 z
M 197.693,-304.068 L 195.137,-304.612 L 192.75,-305.675 L 190.636,-307.211 L 188.887,-309.153 L 187.581,-311.416
 L 186.773,-313.901 L 186.5,-316.5 L 186.773,-319.099 L 187.581,-321.584 L 188.887,-323.847 L 190.636,-325.789
 L 192.75,-327.325 L 195.137,-328.388 L 197.693,-328.932 L 200.307,-328.932 L 202.863,-328.388 L 205.25,-327.325
 L 207.364,-325.789 L 209.113,-323.847 L 210.419,-321.584 L 211.227,-319.099 L 211.5,-316.5 L 211.227,-313.901
 L 210.419,-311.416 L 209.113,-309.153 L 207.364,-307.211 L 205.25,-305.675 L 202.863,-304.612 L 200.307,-304.068
 z
M 216,-293.5 L 216,-305.5 L 220,-305.5 L 220,-293.5 z
M 180,-293.5 L 180,-305.5 L 184,-305.5 L 184,-293.5 z
M 144,-293.5 L 144,-305.5 L 148,-305.5 L 148,-293.5 z
M 36,-293.5 L 36,-305.5 L 40,-305.5 L 40,-293.5 z
M 72,-293.5 L 72,-305.5 L 76,-305.5 L 76,-293.5 z
M 108,-293.5 L 108,-305.5 L 112,-305.5 L 112,-293.5 z
M 161.693,-274.068 L 159.137,-274.612 L 156.75,-275.675 L 154.636,-277.211 L 152.887,-279.153 L 151.581,-281.416
 L 150.773,-283.901 L 150.5,-286.5 L 150.773,-289.099 L 151.581,-291.584 L 152.887,-293.847 L 154.636,-295.789
 L 156.75,-297.325 L 159.137,-298.388 L 161.693,-298.932 L 164.307,-298.932 L 166.863,-298.388 L 169.25,-297.325
 L 171.364,-295.789 L 173.113,-293.847 L 174.419,-291.584 L 175.227,-289.099 L 175.5,-286.5 L 175.227,-283.901
 L 174.419,-281.416 L 173.113,-279.153 L 171.364,-277.211 L 169.25,-275.675 L 166.863,-274.612 L 164.307,-274.068
 z
M 53.6934,-274.068 L 51.1373,-274.612 L 48.75,-275.675 L 46.6359,-277.211 L 44.8873,-279.153 L 43.5807,-281.416
 L 42.7731,-283.901 L 42.5,-286.5 L 42.7731,-289.099 L 43.5807,-291.584 L 44.8873,-293.847 L 46.6359,-295.789
 L 48.75,-297.325 L 51.1373,-298.388 L 53.6934,-298.932 L 56.3066,-298.932 L 58.8627,-298.388 L 61.25,-297.325
 L 63.3641,-295.789 L 65.1127,-293.847 L 66.4193,-291.584 L 67.2268,-289.099 L 67.5,-286.5 L 67.2268,-283.901
 L 66.4193,-281.416 L 65.1127,-279.153 L 63.3641,-277.211 L 61.25,-275.675 L 58.8627,-274.612 L 56.3066,-274.068
 z
M 197.693,-274.068 L 195.137,-274.612 L 192.75,-275.675 L 190.636,-277.211 L 188.887,-279.153 L 187.581,-281.416
 L 186.773,-283.901 L 186.5,-286.5 L 186.773,-289.099 L 187.581,-291.584 L 188.887,-293.847 L 190.636,-295.789
 L 192.75,-297.325 L 195.137,-298.388 L 197.693,-298.932 L 200.307,-298.932 L 202.863,-298.388 L 205.25,-297.325
 L 207.364,-295.789 L 209.113,-293.847 L 210.419,-291.584 L 211.227,-289.099 L 211.5,-286.5 L 211.227,-283.901
 L 210.419,-281.416 L 209.113,-279.153 L 207.364,-277.211 L 205.25,-275.675 L 202.863,-274.612 L 200.307,-274.068
 z
M 89.6934,-274.068 L 87.1373,-274.612 L 84.75,-275.675 L 82.6359,-277.211 L 80.8873,-279.153 L 79.5807,-281.416
 L 78.7731,-283.901 L 78.5,-286.5 L 78.7731,-289.099 L 79.5807,-291.584 L 80.8873,-293.847 L 82.6359,-295.789
 L 84.75,-297.325 L 87.1373,-298.388 L 89.6934,-298.932 L 92.3066,-298.932 L 94.8627,-298.388 L 97.25,-297.325
 L 99.3641,-295.789 L 101.113,-293.847 L 102.419,-291.584 L 103.227,-289.099 L 103.5,-286.5 L 103.227,-283.901
 L 102.419,-281.416 L 101.113,-279.153 L 99.3641,-277.211 L 97.25,-275.675 L 94.8627,-274.612 L 92.3066,-274.068
 z
M 233.693,-274.068 L 231.137,-274.612 L 228.75,-275.675 L 226.636,-277.211 L 224.887,-279.153 L 223.581,-281.416
 L 222.773,-283.901 L 222.5,-286.5 L 222.773,-289.099 L 223.581,-291.584 L 224.887,-293.847 L 226.636,-295.789
 L 228.75,-297.325 L 231.137,-298.388 L 233.693,-298.932 L 236.307,-298.932 L 238.863,-298.388 L 241.25,-297.325
 L 243.364,-295.789 L 245.113,-293.847 L 246.419,-291.584 L 247.227,-289.099 L 247.5,-286.5 L 247.227,-283.901
 L 246.419,-281.416 L 245.113,-279.153 L 243.364,-277.211 L 241.25,-275.675 L 238.863,-274.612 L 236.307,-274.068
 z
M 125.693,-274.068 L 123.137,-274.612 L 120.75,-275.675 L 118.636,-277.211 L 116.887,-279.153 L 115.581,-281.416
 L 114.773,-283.901 L 114.5,-286.5 L 114.773,-289.099 L 115.581,-291.584 L 116.887,-293.847 L 118.636,-295.789
 L 120.75,-297.325 L 123.137,-298.388 L 125.693,-298.932 L 128.307,-298.932 L 130.863,-298.388 L 133.25,-297.325
 L 135.364,-295.789 L 137.113,-293.847 L 138.419,-291.584 L 139.227,-289.099 L 139.5,-286.5 L 139.227,-283.901
 L 138.419,-281.416 L 137.113,-279.153 L 135.364,-277.211 L 133.25,-275.675 L 130.863,-274.612 L 128.307,-274.068
 z
M 17.6934,-274.068 L 15.1373,-274.612 L 12.75,-275.675 L 10.6359,-277.211 L 8.88728,-279.153 L 7.58067,-281.416
 L 6.77315,-283.901 L 6.5,-286.5 L 6.77315,-289.099 L 7.58067,-291.584 L 8.88728,-293.847 L 10.6359,-295.789
 L 12.75,-297.325 L 15.1373,-298.388 L 17.6934,-298.932 L 20.3066,-298.932 L 22.8627,-298.388 L 25.25,-297.325
 L 27.3641,-295.789 L 29.1127,-293.847 L 30.4193,-291.584 L 31.2268,-289.099 L 31.5,-286.5 L 31.2268,-283.901
 L 30.4193,-281.416 L 29.1127,-279.153 L 27.3641,-277.211 L 25.25,-275.675 L 22.8627,-274.612 L 20.3066,-274.068
 z
M 180,-265.5 L 180,-277.5 L 184,-277.5 L 184,-265.5 z
M 36,-265.5 L 36,-277.5 L 40,-277.5 L 40,-265.5 z
M 72,-265.5 L 72,-277.5 L 76,-277.5 L 76,-265.5 z
M 216,-265.5 L 216,-277.5 L 220,-277.5 L 220,-265.5 z
M 108,-265.5 L 108,-277.5 L 112,-277.5 L 112,-265.5 z
M 144,-265.5 L 144,-277.5 L 148,-277.5 L 148,-265.5 z
M 17.6934,-244.068 L 15.1373,-244.612 L 12.75,-245.675 L 10.6359,-247.211 L 8.88728,-249.153 L 7.58067,-251.416
 L 6.77315,-253.901 L 6.5,-256.5 L 6.77315,-259.099 L 7.58067,-261.584 L 8.88728,-263.847 L 10.6359,-265.789
 L 12.75,-267.325 L 15.1373,-268.388 L 17.6934,-268.932 L 20.3066,-268.932 L 22.8627,-268.388 L 25.25,-267.325
 L 27.3641,-265.789 L 29.1127,-263.847 L 30.4193,-261.584 L 31.2268,-259.099 L 31.5,-256.5 L 31.2268,-253.901
 L 30.4193,-251.416 L 29.1127,-249.153 L 27.3641,-247.211 L 25.25,-245.675 L 22.8627,-244.612 L 20.3066,-244.068
 z
M 197.693,-244.068 L 195.137,-244.612 L 192.75,-245.675 L 190.636,-247.211 L 188.887,-249.153 L 187.581,-251.416
 L 186.773,-253.901 L 186.5,-256.5 L 186.773,-259.099 L 187.581,-261.584 L 188.887,-263.847 L 190.636,-265.789
 L 192.75,-267.325 L 195.137,-268.388 L 197.693,-268.932 L 200.307,-268.932 L 202.863,-268.388 L 205.25,-267.325
 L 207.364,-265.789 L 209.113,-263.847 L 210.419,-261.584 L 211.227,-259.099 L 211.5,-256.5 L 211.227,-253.901
 L 210.419,-251.416 L 209.113,-249.153 L 207.364,-247.211 L 205.25,-245.675 L 202.863,-244.612 L 200.307,-244.068
 z
M 125.693,-244.068 L 123.137,-244.612 L 120.75,-245.675 L 118.636,-247.211 L 116.887,-249.153 L 115.581,-251.416
 L 114.773,-253.901 L 114.5,-256.5 L 114.773,-259.099 L 115.581,-261.584 L 116.887,-263.847 L 118.636,-265.789
 L 120.75,-267.325 L 123.137,-268.388 L 125.693,-268.932 L 128.307,-268.932 L 130.863,-268.388 L 133.25,-267.325
 L 135.364,-265.789 L 137.113,-263.847 L 138.419,-261.584 L 139.227,-259.099 L 139.5,-256.5 L 139.227,-253.901
 L 138.419,-251.416 L 137.113,-249.153 L 135.364,-247.211 L 133.25,-245.675 L 130.863,-244.612 L 128.307,-244.068
 z
M 89.6934,-244.068 L 87.1373,-244.612 L 84.75,-245.675 L 82.6359,-247.211 L 80.8873,-249.153 L 79.5807,-251.416
 L 78.7731,-253.901 L 78.5,-256.5 L 78.7731,-259.099 L 79.5807,-261.584 L 80.8873,-263.847 L 82.6359,-265.789
 L 84.75,-267.325 L 87.1373,-268.388 L 89.6934,-268.932 L 92.3066,-268.932 L 94.8627,-268.388 L 97.25,-267.325
 L 99.3641,-265.789 L 101.113,-263.847 L 102.419,-261.584 L 103.227,-259.099 L 103.5,-256.5 L 103.227,-253.901
 L 102.419,-251.416 L 101.113,-249.153 L 99.3641,-247.211 L 97.25,-245.675 L 94.8627,-244.612 L 92.3066,-244.068
 z
M 53.6934,-244.068 L 51.1373,-244.612 L 48.75,-245.675 L 46.6359,-247.211 L 44.8873,-249.153 L 43.5807,-251.416
 L 42.7731,-253.901 L 42.5,-256.5 L 42.7731,-259.099 L 43.5807,-261.584 L 44.8873,-263.847 L 46.6359,-265.789
 L 48.75,-267.325 L 51.1373,-268.388 L 53.6934,-268.932 L 56.3066,-268.932 L 58.8627,-268.388 L 61.25,-267.325
 L 63.3641,-265.789 L 65.1127,-263.847 L 66.4193,-261.584 L 67.2268,-259.099 L 67.5,-256.5 L 67.2268,-253.901
 L 66.4193,-251.416 L 65.1127,-249.153 L 63.3641,-247.211 L 61.25,-245.675 L 58.8627,-244.612 L 56.3066,-244.068
 z
M 233.693,-244.068 L 231.137,-244.612 L 228.75,-245.675 L 226.636,-247.211 L 224.887,-249.153 L 223.581,-251.416
 L 222.773,-253.901 L 222.5,-256.5 L 222.773,-259.099 L 223.581,-261.584 L 224.887,-263.847 L 226.636,-265.789
 L 228.75,-267.325 L 231.137,-268.388 L 233.693,-268.932 L 236.307,-268.932 L 238.863,-268.388 L 241.25,-267.325
 L 243.364,-265.789 L 245.113,-263.847 L 246.419,-261.584 L 247.227,-259.099 L 247.5,-256.5 L 247.227,-253.901
 L 246.419,-251.416 L 245.113,-249.153 L 243.364,-247.211 L 241.25,-245.675 L 238.863,-244.612 L 236.307,-244.068
 z
M 161.693,-244.068 L 159.137,-244.612 L 156.75,-245.675 L 154.636,-247.211 L 152.887,-249.153 L 151.581,-251.416
 L 150.773,-253.901 L 150.5,-256.5 L 150.773,-259.099 L 151.581,-261.584 L 152.887,-263.847 L 154.636,-265.789
 L 156.75,-267.325 L 159.137,-268.388 L 161.693,-268.932 L 164.307,-268.932 L 166.863,-268.388 L 169.25,-267.325
 L 171.364,-265.789 L 173.113,-263.847 L 174.419,-261.584 L 175.227,-259.099 L 175.5,-256.5 L 175.227,-253.901
 L 174.419,-251.416 L 173.113,-249.153 L 171.364,-247.211 L 169.25,-245.675 L 166.863,-244.612 L 164.307,-244.068
 z
M 108,-237.5 L 108,-249.5 L 112,-249.5 L 112,-237.5 z
M 180,-237.5 L 180,-249.5 L 184,-249.5 L 184,-237.5 z
M 144,-237.5 L 144,-249.5 L 148,-249.5 L 148,-237.5 z
M 72,-237.5 L 72,-249.5 L 76,-249.5 L 76,-237.5 z
M 36,-237.5 L 36,-249.5 L 40,-249.5 L 40,-237.5 z
M 216,-237.5 L 216,-249.5 L 220,-249.5 L 220,-237.5 z
M 89.6934,-214.068 L 87.1373,-214.612 L 84.75,-215.675 L 82.6359,-217.211 L 80.8873,-219.153 L 79.5807,-221.416
 L 78.7731,-223.901 L 78.5,-226.5 L 78.7731,-229.099 L 79.5807,-231.584 L 80.8873,-233.847 L 82.6359,-235.789
 L 84.75,-237.325 L 87.1373,-238.388 L 89.6934,-238.932 L 92.3066,-238.932 L 94.8627,-238.388 L 97.25,-237.325
 L 99.3641,-235.789 L 101.113,-233.847 L 102.419,-231.584 L 103.227,-229.099 L 103.5,-226.5 L 103.227,-223.901
 L 102.419,-221.416 L 101.113,-219.153 L 99.3641,-217.211 L 97.25,-215.675 L 94.8627,-214.612 L 92.3066,-214.068
 z
M 125.693,-214.068 L 123.137,-214.612 L 120.75,-215.675 L 118.636,-217.211 L 116.887,-219.153 L 115.581,-221.416
 L 114.773,-223.901 L 114.5,-226.5 L 114.773,-229.099 L 115.581,-231.584 L 116.887,-233.847 L 118.636,-235.789
 L 120.75,-237.325 L 123.137,-238.388 L 125.693,-238.932 L 128.307,-238.932 L 130.863,-238.388 L 133.25,-237.325
 L 135.364,-235.789 L 137.113,-233.847 L 138.419,-231.584 L 139.227,-229.099 L 139.5,-226.5 L 139.227,-223.901
 L 138.419,-221.416 L 137.113,-219.153 L 135.364,-217.211 L 133.25,-215.675 L 130.863,-214.612 L 128.307,-214.068
 z
M 233.693,-214.068 L 231.137,-214.612 L 228.75,-215.675 L 226.636,-217.211 L 224.887,-219.153 L 223.581,-221.416
 L 222.773,-223.901 L 222.5,-226.5 L 222.773,-229.099 L 223.581,-231.584 L 224.887,-233.847 L 226.636,-235.789
 L 228.75,-237.325 L 231.137,-238.388 L 233.693,-238.932 L 236.307,-238.932 L 238.863,-238.388 L 241.25,-237.325
 L 243.364,-235.789 L 245.113,-233.847 L 246.419,-231.584 L 247.227,-229.099 L 247.5,-226.5 L 247.227,-223.901
 L 246.419,-221.416 L 245.113,-219.153 L 243.364,-217.211 L 241.25,-215.675 L 238.863,-214.612 L 236.307,-214.068
 z
M 17.6934,-214.068 L 15.1373,-214.612 L 12.75,-215.675 L 10.6359,-217.211 L 8.88728,-219.153 L 7.58067,-221.416
 L 6.77315,-223.901 L 6.5,-226.5 L 6.77315,-229.099 L 7.58067,-231.584 L 8.88728,-233.847 L 10.6359,-235.789
 L 12.75,-237.325 L 15.1373,-238.388 L 17.6934,-238.932 L 20.3066,-238.932 L 22.8627,-238.388 L 25.25,-237.325
 L 27.3641,-235.789 L 29.1127,-233.847 L 30.4193,-231.584 L 31.2268,-229.099 L 31.5,-226.5 L 31.2268,-223.901
 L 30.4193,-221.416 L 29.1127,-219.153 L 27.3641,-217.211 L 25.25,-215.675 L 22.8627,-214.612 L 20.3066,-214.068
 z
M 197.693,-214.068 L 195.137,-214.612 L 192.75,-215.675 L 190.636,-217.211 L 188.887,-219.153 L 187.581,-221.416
 L 186.773,-223.901 L 186.5,-226.5 L 186.773,-229.099 L 187.581,-231.584 L 188.887,-233.847 L 190.636,-235.789
 L 192.75,-237.325 L 195.137,-238.388 L 197.693,-238.932 L 200.307,-238.932 L 202.863,-238.388 L 205.25,-237.325
 L 207.364,-235.789 L 209.113,-233.847 L 210.419,-231.584 L 211.227,-229.099 L 211.5,-226.5 L 211.227,-223.901
 L 210.419,-221.416 L 209.113,-219.153 L 207.364,-217.211 L 205.25,-215.675 L 202.863,-214.612 L 200.307,-214.068
 z
M 53.6934,-214.068 L 51.1373,-214.612 L 48.75,-215.675 L 46.6359,-217.211 L 44.8873,-219.153 L 43.5807,-221.416
 L 42.7731,-223.901 L 42.5,-226.5 L 42.7731,-229.099 L 43.5807,-231.584 L 44.8873,-233.847 L 46.6359,-235.789
 L 48.75,-237.325 L 51.1373,-238.388 L 53.6934,-238.932 L 56.3066,-238.932 L 58.8627,-238.388 L 61.25,-237.325
 L 63.3641,-235.789 L 65.1127,-233.847 L 66.4193,-231.584 L 67.2268,-229.099 L 67.5,-226.5 L 67.2268,-223.901
 L 66.4193,-221.416 L 65.1127,-219.153 L 63.3641,-217.211 L 61.25,-215.675 L 58.8627,-214.612 L 56.3066,-214.068
 z
M 161.693,-214.068 L 159.137,-214.612 L 156.75,-215.675 L 154.636,-217.211 L 152.887,-219.153 L 151.581,-221.416
 L 150.773,-223.901 L 150.5,-226.5 L 150.773,-229.099 L 151.581,-231.584 L 152.887,-233.847 L 154.636,-235.789
 L 156.75,-237.325 L 159.137,-238.388 L 161.693,-238.932 L 164.307,-238.932 L 166.863,-238.388 L 169.25,-237.325
 L 171.364,-235.789 L 173.113,-233.847 L 174.419,-231.584 L 175.227,-229.099 L 175.5,-226.5 L 175.227,-223.901
 L 174.419,-221.416 L 173.113,-219.153 L 171.364,-217.211 L 169.25,-215.675 L 166.863,-214.612 L 164.307,-214.068
 z
M 180,-209.5 L 180,-221.5 L 184,-221.5 L 184,-209.5 z
M 72,-209.5 L 72,-221.5 L 76,-221.5 L 76,-209.5 z
M 216,-209.5 L 216,-221.5 L 220,-221.5 L 220,-209.5 z
M 36,-209.5 L 36,-221.5 L 40,-221.5 L 40,-209.5 z
M 144,-209.5 L 144,-221.5 L 148,-221.5 L 148,-209.5 z
M 108,-209.5 L 108,-221.5 L 112,-221.5 L 112,-209.5 z
M 89.6934,-184.068 L 87.1373,-184.612 L 84.75,-185.675 L 82.6359,-187.211 L 80.8873,-189.153 L 79.5807,-191.416
 L 78.7731,-193.901 L 78.5,-196.5 L 78.7731,-199.099 L 79.5807,-201.584 L 80.8873,-203.847 L 82.6359,-205.789
 L 84.75,-207.325 L 87.1373,-208.388 L 89.6934,-208.932 L 92.3066,-208.932 L 94.8627,-208.388 L 97.25,-207.325
 L 99.3641,-205.789 L 101.113,-203.847 L 102.419,-201.584 L 103.227,-199.099 L 103.5,-196.5 L 103.227,-193.901
 L 102.419,-191.416 L 101.113,-189.153 L 99.3641,-187.211 L 97.25,-185.675 L 94.8627,-184.612 L 92.3066,-184.068
 z
M 125.693,-184.068 L 123.137,-184.612 L 120.75,-185.675 L 118.636,-187.211 L 116.887,-189.153 L 115.581,-191.416
 L 114.773,-193.901 L 114.5,-196.5 L 114.773,-199.099 L 115.581,-201.584 L 116.887,-203.847 L 118.636,-205.789
 L 120.75,-207.325 L 123.137,-208.388 L 125.693,-208.932 L 128.307,-208.932 L 130.863,-208.388 L 133.25,-207.325
 L 135.364,-205.789 L 137.113,-203.847 L 138.419,-201.584 L 139.227,-199.099 L 139.5,-196.5 L 139.227,-193.901
 L 138.419,-191.416 L 137.113,-189.153 L 135.364,-187.211 L 133.25,-185.675 L 130.863,-184.612 L 128.307,-184.068
 z
M 233.693,-184.068 L 231.137,-184.612 L 228.75,-185.675 L 226.636,-187.211 L 224.887,-189.153 L 223.581,-191.416
 L 222.773,-193.901 L 222.5,-196.5 L 222.773,-199.099 L 223.581,-201.584 L 224.887,-203.847 L 226.636,-205.789
 L 228.75,-207.325 L 231.137,-208.388 L 233.693,-208.932 L 236.307,-208.932 L 238.863,-208.388 L 241.25,-207.325
 L 243.364,-205.789 L 245.113,-203.847 L 246.419,-201.584 L 247.227,-199.099 L 247.5,-196.5 L 247.227,-193.901
 L 246.419,-191.416 L 245.113,-189.153 L 243.364,-187.211 L 241.25,-185.675 L 238.863,-184.612 L 236.307,-184.068
 z
M 53.6934,-184.068 L 51.1373,-184.612 L 48.75,-185.675 L 46.6359,-187.211 L 44.8873,-189.153 L 43.5807,-191.416
 L 42.7731,-193.901 L 42.5,-196.5 L 42.7731,-199.099 L 43.5807,-201.584 L 44.8873,-203.847 L 46.6359,-205.789
 L 48.75,-207.325 L 51.1373,-208.388 L 53.6934,-208.932 L 56.3066,-208.932 L 58.8627,-208.388 L 61.25,-207.325
 L 63.3641,-205.789 L 65.1127,-203.847 L 66.4193,-201.584 L 67.2268,-199.099 L 67.5,-196.5 L 67.2268,-193.901
 L 66.4193,-191.416 L 65.1127,-189.153 L 63.3641,-187.211 L 61.25,-185.675 L 58.8627,-184.612 L 56.3066,-184.068
 z
M 197.693,-184.068 L 195.137,-184.612 L 192.75,-185.675 L 190.636,-187.211 L 188.887,-189.153 L 187.581,-191.416
 L 186.773,-193.901 L 186.5,-196.5 L 186.773,-199.099 L 187.581,-201.584 L 188.887,-203.847 L 190.636,-205.789
 L 192.75,-207.325 L 195.137,-208.388 L 197.693,-208.932 L 200.307,-208.932 L 202.863,-208.388 L 205.25,-207.325
 L 207.364,-205.789 L 209.113,-203.847 L 210.419,-201.584 L 211.227,-199.099 L 211.5,-196.5 L 211.227,-193.901
 L 210.419,-191.416 L 209.113,-189.153 L 207.364,-187.211 L 205.25,-185.675 L 202.863,-184.612 L 200.307,-184.068
 z
M 17.6934,-184.068 L 15.1373,-184.612 L 12.75,-185.675 L 10.6359,-187.211 L 8.88728,-189.153 L 7.58067,-191.416
 L 6.77315,-193.901 L 6.5,-196.5 L 6.77315,-199.099 L 7.58067,-201.584 L 8.88728,-203.847 L 10.6359,-205.789
 L 12.75,-207.325 L 15.1373,-208.388 L 17.6934,-208.932 L 20.3066,-208.932 L 22.8627,-208.388 L 25.25,-207.325
 L 27.3641,-205.789 L 29.1127,-203.847 L 30.4193,-201.584 L 31.2268,-199.099 L 31.5,-196.5 L 31.2268,-193.901
 L 30.4193,-191.416 L 29.1127,-189.153 L 27.3641,-187.211 L 25.25,-185.675 L 22.8627,-184.612 L 20.3066,-184.068
 z
M 161.693,-184.068 L 159.137,-184.612 L 156.75,-185.675 L 154.636,-187.211 L 152.887,-189.153 L 151.581,-191.416
 L 150.773,-193.901 L 150.5,-196.5 L 150.773,-199.099 L 151.581,-201.584 L 152.887,-203.847 L 154.636,-205.789
 L 156.75,-207.325 L 159.137,-208.388 L 161.693,-208.932 L 164.307,-208.932 L 166.863,-208.388 L 169.25,-207.325
 L 171.364,-205.789 L 173.113,-203.847 L 174.419,-201.584 L 175.227,-199.099 L 175.5,-196.5 L 175.227,-193.901
 L 174.419,-191.416 L 173.113,-189.153 L 171.364,-187.211 L 169.25,-185.675 L 166.863,-184.612 L 164.307,-184.068
 z
M 395.635,-151.734 L 398.5,-153.01 L 401.037,-154.853 L 403.135,-157.183 L 404.703,-159.899 L 405.672,-162.881
 L 406,-166 L 405.672,-169.119 L 404.703,-172.101 L 403.135,-174.817 L 401.037,-177.147 L 398.5,-178.99
 L 395.635,-180.266 L 392.568,-180.918 L 389.432,-180.918 L 386.365,-180.266 L 383.5,-178.99 L 380.963,-177.147
 L 378.865,-174.817 L 377.297,-172.101 L 376.328,-169.119 L 376,-166 L 376.328,-162.881 L 377.297,-159.899
 L 378.865,-157.183 L 380.963,-154.853 L 383.5,-153.01 L 386.365,-151.734 L 389.432,-151.082 L 392.568,-151.082
 z
M 550.635,-151.734 L 553.5,-153.01 L 556.037,-154.853 L 558.135,-157.183 L 559.703,-159.899 L 560.672,-162.881
 L 561,-166 L 560.672,-169.119 L 559.703,-172.101 L 558.135,-174.817 L 556.037,-177.147 L 553.5,-178.99
 L 550.635,-180.266 L 547.568,-180.918 L 544.432,-180.918 L 541.365,-180.266 L 538.5,-178.99 L 535.963,-177.147
 L 533.865,-174.817 L 532.297,-172.101 L 531.328,-169.119 L 531,-166 L 531.328,-162.881 L 532.297,-159.899
 L 533.865,-157.183 L 535.963,-154.853 L 538.5,-153.01 L 541.365,-151.734 L 544.432,-151.082 L 547.568,-151.082
 z
M 519.635,-151.734 L 522.5,-153.01 L 525.037,-154.853 L 527.135,-157.183 L 528.703,-159.899 L 529.672,-162.881
 L 530,-166 L 529.672,-169.119 L 528.703,-172.101 L 527.135,-174.817 L 525.037,-177.147 L 522.5,-178.99
 L 519.635,-180.266 L 516.568,-180.918 L 513.432,-180.918 L 510.365,-180.266 L 507.5,-178.99 L 504.963,-177.147
 L 502.865,-174.817 L 501.297,-172.101 L 500.328,-169.119 L 500,-166 L 500.328,-162.881 L 501.297,-159.899
 L 502.865,-157.183 L 504.963,-154.853 L 507.5,-153.01 L 510.365,-151.734 L 513.432,-151.082 L 516.568,-151.082
 z
M 457.635,-151.734 L 460.5,-153.01 L 463.037,-154.853 L 465.135,-157.183 L 466.703,-159.899 L 467.672,-162.881
 L 468,-166 L 467.672,-169.119 L 466.703,-172.101 L 465.135,-174.817 L 463.037,-177.147 L 460.5,-178.99
 L 457.635,-180.266 L 454.568,-180.918 L 451.432,-180.918 L 448.365,-180.266 L 445.5,-178.99 L 442.963,-177.147
 L 440.865,-174.817 L 439.297,-172.101 L 438.328,-169.119 L 438,-166 L 438.328,-162.881 L 439.297,-159.899
 L 440.865,-157.183 L 442.963,-154.853 L 445.5,-153.01 L 448.365,-151.734 L 451.432,-151.082 L 454.568,-151.082
 z
M 364.635,-151.734 L 367.5,-153.01 L 370.037,-154.853 L 372.135,-157.183 L 373.703,-159.899 L 374.672,-162.881
 L 375,-166 L 374.672,-169.119 L 373.703,-172.101 L 372.135,-174.817 L 370.037,-177.147 L 367.5,-178.99
 L 364.635,-180.266 L 361.568,-180.918 L 358.432,-180.918 L 355.365,-180.266 L 352.5,-178.99 L 349.963,-177.147
 L 347.865,-174.817 L 346.297,-172.101 L 345.328,-169.119 L 345,-166 L 345.328,-162.881 L 346.297,-159.899
 L 347.865,-157.183 L 349.963,-154.853 L 352.5,-153.01 L 355.365,-151.734 L 358.432,-151.082 L 361.568,-151.082
 z
M 488.635,-151.734 L 491.5,-153.01 L 494.037,-154.853 L 496.135,-157.183 L 497.703,-159.899 L 498.672,-162.881
 L 499,-166 L 498.672,-169.119 L 497.703,-172.101 L 496.135,-174.817 L 494.037,-177.147 L 491.5,-178.99
 L 488.635,-180.266 L 485.568,-180.918 L 482.432,-180.918 L 479.365,-180.266 L 476.5,-178.99 L 473.963,-177.147
 L 471.865,-174.817 L 470.297,-172.101 L 469.328,-169.119 L 469,-166 L 469.328,-162.881 L 470.297,-159.899
 L 471.865,-157.183 L 473.963,-154.853 L 476.5,-153.01 L 479.365,-151.734 L 482.432,-151.082 L 485.568,-151.082
 z
M 426.635,-151.734 L 429.5,-153.01 L 432.037,-154.853 L 434.135,-157.183 L 435.703,-159.899 L 436.672,-162.881
 L 437,-166 L 436.672,-169.119 L 435.703,-172.101 L 434.135,-174.817 L 432.037,-177.147 L 429.5,-178.99
 L 426.635,-180.266 L 423.568,-180.918 L 420.432,-180.918 L 417.365,-180.266 L 414.5,-178.99 L 411.963,-177.147
 L 409.865,-174.817 L 408.297,-172.101 L 407.328,-169.119 L 407,-166 L 407.328,-162.881 L 408.297,-159.899
 L 409.865,-157.183 L 411.963,-154.853 L 414.5,-153.01 L 417.365,-151.734 L 420.432,-151.082 L 423.568,-151.082
 z
M 36,-12 L 40,-12 L 40,-0 L 72,-0 L 72,-12 L 76,-12
 L 76,-0 L 108,-0 L 108,-12 L 112,-12 L 112,-0 L 144,-0
 L 144,-12 L 148,-12 L 148,-0 L 180,-0 L 180,-12 L 184,-12
 L 184,-0 L 216,-0 L 216,-12 L 220,-12 L 220,-0 L 254,-0
 L 254,-12 L 250,-12 L 250,-28 L 254,-28 L 254,-40 L 250,-40
 L 250,-56 L 254,-56 L 254,-68 L 250,-68 L 250,-84 L 254,-84
 L 254,-96 L 250,-96 L 250,-112 L 254,-112 L 254,-124 L 250,-124
 L 250,-140 L 254,-140 L 254,-152 L 250,-152 L 250,-168 L 254,-168
 L 254,-180 L 220,-180 L 220,-168 L 216,-168 L 216,-180 L 184,-180
 L 184,-168 L 180,-168 L 180,-180 L 148,-180 L 148,-168 L 144,-168
 L 144,-180 L 112,-180 L 112,-168 L 108,-168 L 108,-180 L 76,-180
 L 76,-168 L 72,-168 L 72,-180 L 40,-180 L 40,-168 L 36,-168
 L 36,-180 L 0,-180 L 0,-168 L 4,-168 L 4,-152 L 0,-152
 L 0,-140 L 4,-140 L 4,-124 L 0,-124 L 0,-112 L 4,-112
 L 4,-96 L 0,-96 L 0,-84 L 4,-84 L 4,-68 L 0,-68
 L 0,-56 L 4,-56 L 4,-40 L 0,-40 L 0,-28 L 4,-28
 L 4,-12 L 0,-12 L 0,-0 L 36,-0 z
M 17.6934,-152.568 L 15.1373,-153.112 L 12.75,-154.175 L 10.6359,-155.711 L 8.88728,-157.653 L 7.58067,-159.916
 L 6.77315,-162.401 L 6.5,-165 L 6.77315,-167.599 L 7.58067,-170.084 L 8.88728,-172.347 L 10.6359,-174.289
 L 12.75,-175.825 L 15.1373,-176.888 L 17.6934,-177.432 L 20.3066,-177.432 L 22.8627,-176.888 L 25.25,-175.825
 L 27.3641,-174.289 L 29.1127,-172.347 L 30.4193,-170.084 L 31.2268,-167.599 L 31.5,-165 L 31.2268,-162.401
 L 30.4193,-159.916 L 29.1127,-157.653 L 27.3641,-155.711 L 25.25,-154.175 L 22.8627,-153.112 L 20.3066,-152.568
 z
M 53.6934,-152.568 L 51.1373,-153.112 L 48.75,-154.175 L 46.6359,-155.711 L 44.8873,-157.653 L 43.5807,-159.916
 L 42.7731,-162.401 L 42.5,-165 L 42.7731,-167.599 L 43.5807,-170.084 L 44.8873,-172.347 L 46.6359,-174.289
 L 48.75,-175.825 L 51.1373,-176.888 L 53.6934,-177.432 L 56.3066,-177.432 L 58.8627,-176.888 L 61.25,-175.825
 L 63.3641,-174.289 L 65.1127,-172.347 L 66.4193,-170.084 L 67.2268,-167.599 L 67.5,-165 L 67.2268,-162.401
 L 66.4193,-159.916 L 65.1127,-157.653 L 63.3641,-155.711 L 61.25,-154.175 L 58.8627,-153.112 L 56.3066,-152.568
 z
M 233.693,-152.568 L 231.137,-153.112 L 228.75,-154.175 L 226.636,-155.711 L 224.887,-157.653 L 223.581,-159.916
 L 222.773,-162.401 L 222.5,-165 L 222.773,-167.599 L 223.581,-170.084 L 224.887,-172.347 L 226.636,-174.289
 L 228.75,-175.825 L 231.137,-176.888 L 233.693,-177.432 L 236.307,-177.432 L 238.863,-176.888 L 241.25,-175.825
 L 243.364,-174.289 L 245.113,-172.347 L 246.419,-170.084 L 247.227,-167.599 L 247.5,-165 L 247.227,-162.401
 L 246.419,-159.916 L 245.113,-157.653 L 243.364,-155.711 L 241.25,-154.175 L 238.863,-153.112 L 236.307,-152.568
 z
M 197.693,-152.568 L 195.137,-153.112 L 192.75,-154.175 L 190.636,-155.711 L 188.887,-157.653 L 187.581,-159.916
 L 186.773,-162.401 L 186.5,-165 L 186.773,-167.599 L 187.581,-170.084 L 188.887,-172.347 L 190.636,-174.289
 L 192.75,-175.825 L 195.137,-176.888 L 197.693,-177.432 L 200.307,-177.432 L 202.863,-176.888 L 205.25,-175.825
 L 207.364,-174.289 L 209.113,-172.347 L 210.419,-170.084 L 211.227,-167.599 L 211.5,-165 L 211.227,-162.401
 L 210.419,-159.916 L 209.113,-157.653 L 207.364,-155.711 L 205.25,-154.175 L 202.863,-153.112 L 200.307,-152.568
 z
M 125.693,-152.568 L 123.137,-153.112 L 120.75,-154.175 L 118.636,-155.711 L 116.887,-157.653 L 115.581,-159.916
 L 114.773,-162.401 L 114.5,-165 L 114.773,-167.599 L 115.581,-170.084 L 116.887,-172.347 L 118.636,-174.289
 L 120.75,-175.825 L 123.137,-176.888 L 125.693,-177.432 L 128.307,-177.432 L 130.863,-176.888 L 133.25,-175.825
 L 135.364,-174.289 L 137.113,-172.347 L 138.419,-170.084 L 139.227,-167.599 L 139.5,-165 L 139.227,-162.401
 L 138.419,-159.916 L 137.113,-157.653 L 135.364,-155.711 L 133.25,-154.175 L 130.863,-153.112 L 128.307,-152.568
 z
M 161.693,-152.568 L 159.137,-153.112 L 156.75,-154.175 L 154.636,-155.711 L 152.887,-157.653 L 151.581,-159.916
 L 150.773,-162.401 L 150.5,-165 L 150.773,-167.599 L 151.581,-170.084 L 152.887,-172.347 L 154.636,-174.289
 L 156.75,-175.825 L 159.137,-176.888 L 161.693,-177.432 L 164.307,-177.432 L 166.863,-176.888 L 169.25,-175.825
 L 171.364,-174.289 L 173.113,-172.347 L 174.419,-170.084 L 175.227,-167.599 L 175.5,-165 L 175.227,-162.401
 L 174.419,-159.916 L 173.113,-157.653 L 171.364,-155.711 L 169.25,-154.175 L 166.863,-153.112 L 164.307,-152.568
 z
M 89.6934,-152.568 L 87.1373,-153.112 L 84.75,-154.175 L 82.6359,-155.711 L 80.8873,-157.653 L 79.5807,-159.916
 L 78.7731,-162.401 L 78.5,-165 L 78.7731,-167.599 L 79.5807,-170.084 L 80.8873,-172.347 L 82.6359,-174.289
 L 84.75,-175.825 L 87.1373,-176.888 L 89.6934,-177.432 L 92.3066,-177.432 L 94.8627,-176.888 L 97.25,-175.825
 L 99.3641,-174.289 L 101.113,-172.347 L 102.419,-170.084 L 103.227,-167.599 L 103.5,-165 L 103.227,-162.401
 L 102.419,-159.916 L 101.113,-157.653 L 99.3641,-155.711 L 97.25,-154.175 L 94.8627,-153.112 L 92.3066,-152.568
 z
M 144,-140 L 144,-152 L 148,-152 L 148,-140 z
M 180,-140 L 180,-152 L 184,-152 L 184,-140 z
M 36,-140 L 36,-152 L 40,-152 L 40,-140 z
M 216,-140 L 216,-152 L 220,-152 L 220,-140 z
M 108,-140 L 108,-152 L 112,-152 L 112,-140 z
M 72,-140 L 72,-152 L 76,-152 L 76,-140 z
M 161.693,-122.568 L 159.137,-123.112 L 156.75,-124.175 L 154.636,-125.711 L 152.887,-127.653 L 151.581,-129.916
 L 150.773,-132.401 L 150.5,-135 L 150.773,-137.599 L 151.581,-140.084 L 152.887,-142.347 L 154.636,-144.289
 L 156.75,-145.825 L 159.137,-146.888 L 161.693,-147.432 L 164.307,-147.432 L 166.863,-146.888 L 169.25,-145.825
 L 171.364,-144.289 L 173.113,-142.347 L 174.419,-140.084 L 175.227,-137.599 L 175.5,-135 L 175.227,-132.401
 L 174.419,-129.916 L 173.113,-127.653 L 171.364,-125.711 L 169.25,-124.175 L 166.863,-123.112 L 164.307,-122.568
 z
M 197.693,-122.568 L 195.137,-123.112 L 192.75,-124.175 L 190.636,-125.711 L 188.887,-127.653 L 187.581,-129.916
 L 186.773,-132.401 L 186.5,-135 L 186.773,-137.599 L 187.581,-140.084 L 188.887,-142.347 L 190.636,-144.289
 L 192.75,-145.825 L 195.137,-146.888 L 197.693,-147.432 L 200.307,-147.432 L 202.863,-146.888 L 205.25,-145.825
 L 207.364,-144.289 L 209.113,-142.347 L 210.419,-140.084 L 211.227,-137.599 L 211.5,-135 L 211.227,-132.401
 L 210.419,-129.916 L 209.113,-127.653 L 207.364,-125.711 L 205.25,-124.175 L 202.863,-123.112 L 200.307,-122.568
 z
M 233.693,-122.568 L 231.137,-123.112 L 228.75,-124.175 L 226.636,-125.711 L 224.887,-127.653 L 223.581,-129.916
 L 222.773,-132.401 L 222.5,-135 L 222.773,-137.599 L 223.581,-140.084 L 224.887,-142.347 L 226.636,-144.289
 L 228.75,-145.825 L 231.137,-146.888 L 233.693,-147.432 L 236.307,-147.432 L 238.863,-146.888 L 241.25,-145.825
 L 243.364,-144.289 L 245.113,-142.347 L 246.419,-140.084 L 247.227,-137.599 L 247.5,-135 L 247.227,-132.401
 L 246.419,-129.916 L 245.113,-127.653 L 243.364,-125.711 L 241.25,-124.175 L 238.863,-123.112 L 236.307,-122.568
 z
M 53.6934,-122.568 L 51.1373,-123.112 L 48.75,-124.175 L 46.6359,-125.711 L 44.8873,-127.653 L 43.5807,-129.916
 L 42.7731,-132.401 L 42.5,-135 L 42.7731,-137.599 L 43.5807,-140.084 L 44.8873,-142.347 L 46.6359,-144.289
 L 48.75,-145.825 L 51.1373,-146.888 L 53.6934,-147.432 L 56.3066,-147.432 L 58.8627,-146.888 L 61.25,-145.825
 L 63.3641,-144.289 L 65.1127,-142.347 L 66.4193,-140.084 L 67.2268,-137.599 L 67.5,-135 L 67.2268,-132.401
 L 66.4193,-129.916 L 65.1127,-127.653 L 63.3641,-125.711 L 61.25,-124.175 L 58.8627,-123.112 L 56.3066,-122.568
 z
M 125.693,-122.568 L 123.137,-123.112 L 120.75,-124.175 L 118.636,-125.711 L 116.887,-127.653 L 115.581,-129.916
 L 114.773,-132.401 L 114.5,-135 L 114.773,-137.599 L 115.581,-140.084 L 116.887,-142.347 L 118.636,-144.289
 L 120.75,-145.825 L 123.137,-146.888 L 125.693,-147.432 L 128.307,-147.432 L 130.863,-146.888 L 133.25,-145.825
 L 135.364,-144.289 L 137.113,-142.347 L 138.419,-140.084 L 139.227,-137.599 L 139.5,-135 L 139.227,-132.401
 L 138.419,-129.916 L 137.113,-127.653 L 135.364,-125.711 L 133.25,-124.175 L 130.863,-123.112 L 128.307,-122.568
 z
M 89.6934,-122.568 L 87.1373,-123.112 L 84.75,-124.175 L 82.6359,-125.711 L 80.8873,-127.653 L 79.5807,-129.916
 L 78.7731,-132.401 L 78.5,-135 L 78.7731,-137.599 L 79.5807,-140.084 L 80.8873,-142.347 L 82.6359,-144.289
 L 84.75,-145.825 L 87.1373,-146.888 L 89.6934,-147.432 L 92.3066,-147.432 L 94.8627,-146.888 L 97.25,-145.825
 L 99.3641,-144.289 L 101.113,-142.347 L 102.419,-140.084 L 103.227,-137.599 L 103.5,-135 L 103.227,-132.401
 L 102.419,-129.916 L 101.113,-127.653 L 99.3641,-125.711 L 97.25,-124.175 L 94.8627,-123.112 L 92.3066,-122.568
 z
M 17.6934,-122.568 L 15.1373,-123.112 L 12.75,-124.175 L 10.6359,-125.711 L 8.88728,-127.653 L 7.58067,-129.916
 L 6.77315,-132.401 L 6.5,-135 L 6.77315,-137.599 L 7.58067,-140.084 L 8.88728,-142.347 L 10.6359,-144.289
 L 12.75,-145.825 L 15.1373,-146.888 L 17.6934,-147.432 L 20.3066,-147.432 L 22.8627,-146.888 L 25.25,-145.825
 L 27.3641,-144.289 L 29.1127,-142.347 L 30.4193,-140.084 L 31.2268,-137.599 L 31.5,-135 L 31.2268,-132.401
 L 30.4193,-129.916 L 29.1127,-127.653 L 27.3641,-125.711 L 25.25,-124.175 L 22.8627,-123.112 L 20.3066,-122.568
 z
M 180,-112 L 180,-124 L 184,-124 L 184,-112 z
M 36,-112 L 36,-124 L 40,-124 L 40,-112 z
M 72,-112 L 72,-124 L 76,-124 L 76,-112 z
M 216,-112 L 216,-124 L 220,-124 L 220,-112 z
M 108,-112 L 108,-124 L 112,-124 L 112,-112 z
M 144,-112 L 144,-124 L 148,-124 L 148,-112 z
M 161.693,-92.5685 L 159.137,-93.1118 L 156.75,-94.1747 L 154.636,-95.7107 L 152.887,-97.6527 L 151.581,-99.9158
 L 150.773,-102.401 L 150.5,-105 L 150.773,-107.599 L 151.581,-110.084 L 152.887,-112.347 L 154.636,-114.289
 L 156.75,-115.825 L 159.137,-116.888 L 161.693,-117.432 L 164.307,-117.432 L 166.863,-116.888 L 169.25,-115.825
 L 171.364,-114.289 L 173.113,-112.347 L 174.419,-110.084 L 175.227,-107.599 L 175.5,-105 L 175.227,-102.401
 L 174.419,-99.9158 L 173.113,-97.6527 L 171.364,-95.7107 L 169.25,-94.1747 L 166.863,-93.1118 L 164.307,-92.5685
 z
M 89.6934,-92.5685 L 87.1373,-93.1118 L 84.75,-94.1747 L 82.6359,-95.7107 L 80.8873,-97.6527 L 79.5807,-99.9158
 L 78.7731,-102.401 L 78.5,-105 L 78.7731,-107.599 L 79.5807,-110.084 L 80.8873,-112.347 L 82.6359,-114.289
 L 84.75,-115.825 L 87.1373,-116.888 L 89.6934,-117.432 L 92.3066,-117.432 L 94.8627,-116.888 L 97.25,-115.825
 L 99.3641,-114.289 L 101.113,-112.347 L 102.419,-110.084 L 103.227,-107.599 L 103.5,-105 L 103.227,-102.401
 L 102.419,-99.9158 L 101.113,-97.6527 L 99.3641,-95.7107 L 97.25,-94.1747 L 94.8627,-93.1118 L 92.3066,-92.5685
 z
M 233.693,-92.5685 L 231.137,-93.1118 L 228.75,-94.1747 L 226.636,-95.7107 L 224.887,-97.6527 L 223.581,-99.9158
 L 222.773,-102.401 L 222.5,-105 L 222.773,-107.599 L 223.581,-110.084 L 224.887,-112.347 L 226.636,-114.289
 L 228.75,-115.825 L 231.137,-116.888 L 233.693,-117.432 L 236.307,-117.432 L 238.863,-116.888 L 241.25,-115.825
 L 243.364,-114.289 L 245.113,-112.347 L 246.419,-110.084 L 247.227,-107.599 L 247.5,-105 L 247.227,-102.401
 L 246.419,-99.9158 L 245.113,-97.6527 L 243.364,-95.7107 L 241.25,-94.1747 L 238.863,-93.1118 L 236.307,-92.5685
 z
M 125.693,-92.5685 L 123.137,-93.1118 L 120.75,-94.1747 L 118.636,-95.7107 L 116.887,-97.6527 L 115.581,-99.9158
 L 114.773,-102.401 L 114.5,-105 L 114.773,-107.599 L 115.581,-110.084 L 116.887,-112.347 L 118.636,-114.289
 L 120.75,-115.825 L 123.137,-116.888 L 125.693,-117.432 L 128.307,-117.432 L 130.863,-116.888 L 133.25,-115.825
 L 135.364,-114.289 L 137.113,-112.347 L 138.419,-110.084 L 139.227,-107.599 L 139.5,-105 L 139.227,-102.401
 L 138.419,-99.9158 L 137.113,-97.6527 L 135.364,-95.7107 L 133.25,-94.1747 L 130.863,-93.1118 L 128.307,-92.5685
 z
M 17.6934,-92.5685 L 15.1373,-93.1118 L 12.75,-94.1747 L 10.6359,-95.7107 L 8.88728,-97.6527 L 7.58067,-99.9158
 L 6.77315,-102.401 L 6.5,-105 L 6.77315,-107.599 L 7.58067,-110.084 L 8.88728,-112.347 L 10.6359,-114.289
 L 12.75,-115.825 L 15.1373,-116.888 L 17.6934,-117.432 L 20.3066,-117.432 L 22.8627,-116.888 L 25.25,-115.825
 L 27.3641,-114.289 L 29.1127,-112.347 L 30.4193,-110.084 L 31.2268,-107.599 L 31.5,-105 L 31.2268,-102.401
 L 30.4193,-99.9158 L 29.1127,-97.6527 L 27.3641,-95.7107 L 25.25,-94.1747 L 22.8627,-93.1118 L 20.3066,-92.5685
 z
M 197.693,-92.5685 L 195.137,-93.1118 L 192.75,-94.1747 L 190.636,-95.7107 L 188.887,-97.6527 L 187.581,-99.9158
 L 186.773,-102.401 L 186.5,-105 L 186.773,-107.599 L 187.581,-110.084 L 188.887,-112.347 L 190.636,-114.289
 L 192.75,-115.825 L 195.137,-116.888 L 197.693,-117.432 L 200.307,-117.432 L 202.863,-116.888 L 205.25,-115.825
 L 207.364,-114.289 L 209.113,-112.347 L 210.419,-110.084 L 211.227,-107.599 L 211.5,-105 L 211.227,-102.401
 L 210.419,-99.9158 L 209.113,-97.6527 L 207.364,-95.7107 L 205.25,-94.1747 L 202.863,-93.1118 L 200.307,-92.5685
 z
M 53.6934,-92.5685 L 51.1373,-93.1118 L 48.75,-94.1747 L 46.6359,-95.7107 L 44.8873,-97.6527 L 43.5807,-99.9158
 L 42.7731,-102.401 L 42.5,-105 L 42.7731,-107.599 L 43.5807,-110.084 L 44.8873,-112.347 L 46.6359,-114.289
 L 48.75,-115.825 L 51.1373,-116.888 L 53.6934,-117.432 L 56.3066,-117.432 L 58.8627,-116.888 L 61.25,-115.825
 L 63.3641,-114.289 L 65.1127,-112.347 L 66.4193,-110.084 L 67.2268,-107.599 L 67.5,-105 L 67.2268,-102.401
 L 66.4193,-99.9158 L 65.1127,-97.6527 L 63.3641,-95.7107 L 61.25,-94.1747 L 58.8627,-93.1118 L 56.3066,-92.5685
 z
M 216,-84 L 216,-96 L 220,-96 L 220,-84 z
M 180,-84 L 180,-96 L 184,-96 L 184,-84 z
M 36,-84 L 36,-96 L 40,-96 L 40,-84 z
M 72,-84 L 72,-96 L 76,-96 L 76,-84 z
M 108,-84 L 108,-96 L 112,-96 L 112,-84 z
M 144,-84 L 144,-96 L 148,-96 L 148,-84 z
M 17.6934,-62.5685 L 15.1373,-63.1118 L 12.75,-64.1747 L 10.6359,-65.7107 L 8.88728,-67.6527 L 7.58067,-69.9158
 L 6.77315,-72.4011 L 6.5,-75 L 6.77315,-77.5989 L 7.58067,-80.0842 L 8.88728,-82.3473 L 10.6359,-84.2893
 L 12.75,-85.8253 L 15.1373,-86.8882 L 17.6934,-87.4315 L 20.3066,-87.4315 L 22.8627,-86.8882 L 25.25,-85.8253
 L 27.3641,-84.2893 L 29.1127,-82.3473 L 30.4193,-80.0842 L 31.2268,-77.5989 L 31.5,-75 L 31.2268,-72.4011
 L 30.4193,-69.9158 L 29.1127,-67.6527 L 27.3641,-65.7107 L 25.25,-64.1747 L 22.8627,-63.1118 L 20.3066,-62.5685
 z
M 197.693,-62.5685 L 195.137,-63.1118 L 192.75,-64.1747 L 190.636,-65.7107 L 188.887,-67.6527 L 187.581,-69.9158
 L 186.773,-72.4011 L 186.5,-75 L 186.773,-77.5989 L 187.581,-80.0842 L 188.887,-82.3473 L 190.636,-84.2893
 L 192.75,-85.8253 L 195.137,-86.8882 L 197.693,-87.4315 L 200.307,-87.4315 L 202.863,-86.8882 L 205.25,-85.8253
 L 207.364,-84.2893 L 209.113,-82.3473 L 210.419,-80.0842 L 211.227,-77.5989 L 211.5,-75 L 211.227,-72.4011
 L 210.419,-69.9158 L 209.113,-67.6527 L 207.364,-65.7107 L 205.25,-64.1747 L 202.863,-63.1118 L 200.307,-62.5685
 z
M 125.693,-62.5685 L 123.137,-63.1118 L 120.75,-64.1747 L 118.636,-65.7107 L 116.887,-67.6527 L 115.581,-69.9158
 L 114.773,-72.4011 L 114.5,-75 L 114.773,-77.5989 L 115.581,-80.0842 L 116.887,-82.3473 L 118.636,-84.2893
 L 120.75,-85.8253 L 123.137,-86.8882 L 125.693,-87.4315 L 128.307,-87.4315 L 130.863,-86.8882 L 133.25,-85.8253
 L 135.364,-84.2893 L 137.113,-82.3473 L 138.419,-80.0842 L 139.227,-77.5989 L 139.5,-75 L 139.227,-72.4011
 L 138.419,-69.9158 L 137.113,-67.6527 L 135.364,-65.7107 L 133.25,-64.1747 L 130.863,-63.1118 L 128.307,-62.5685
 z
M 89.6934,-62.5685 L 87.1373,-63.1118 L 84.75,-64.1747 L 82.6359,-65.7107 L 80.8873,-67.6527 L 79.5807,-69.9158
 L 78.7731,-72.4011 L 78.5,-75 L 78.7731,-77.5989 L 79.5807,-80.0842 L 80.8873,-82.3473 L 82.6359,-84.2893
 L 84.75,-85.8253 L 87.1373,-86.8882 L 89.6934,-87.4315 L 92.3066,-87.4315 L 94.8627,-86.8882 L 97.25,-85.8253
 L 99.3641,-84.2893 L 101.113,-82.3473 L 102.419,-80.0842 L 103.227,-77.5989 L 103.5,-75 L 103.227,-72.4011
 L 102.419,-69.9158 L 101.113,-67.6527 L 99.3641,-65.7107 L 97.25,-64.1747 L 94.8627,-63.1118 L 92.3066,-62.5685
 z
M 53.6934,-62.5685 L 51.1373,-63.1118 L 48.75,-64.1747 L 46.6359,-65.7107 L 44.8873,-67.6527 L 43.5807,-69.9158
 L 42.7731,-72.4011 L 42.5,-75 L 42.7731,-77.5989 L 43.5807,-80.0842 L 44.8873,-82.3473 L 46.6359,-84.2893
 L 48.75,-85.8253 L 51.1373,-86.8882 L 53.6934,-87.4315 L 56.3066,-87.4315 L 58.8627,-86.8882 L 61.25,-85.8253
 L 63.3641,-84.2893 L 65.1127,-82.3473 L 66.4193,-80.0842 L 67.2268,-77.5989 L 67.5,-75 L 67.2268,-72.4011
 L 66.4193,-69.9158 L 65.1127,-67.6527 L 63.3641,-65.7107 L 61.25,-64.1747 L 58.8627,-63.1118 L 56.3066,-62.5685
 z
M 233.693,-62.5685 L 231.137,-63.1118 L 228.75,-64.1747 L 226.636,-65.7107 L 224.887,-67.6527 L 223.581,-69.9158
 L 222.773,-72.4011 L 222.5,-75 L 222.773,-77.5989 L 223.581,-80.0842 L 224.887,-82.3473 L 226.636,-84.2893
 L 228.75,-85.8253 L 231.137,-86.8882 L 233.693,-87.4315 L 236.307,-87.4315 L 238.863,-86.8882 L 241.25,-85.8253
 L 243.364,-84.2893 L 245.113,-82.3473 L 246.419,-80.0842 L 247.227,-77.5989 L 247.5,-75 L 247.227,-72.4011
 L 246.419,-69.9158 L 245.113,-67.6527 L 243.364,-65.7107 L 241.25,-64.1747 L 238.863,-63.1118 L 236.307,-62.5685
 z
M 161.693,-62.5685 L 159.137,-63.1118 L 156.75,-64.1747 L 154.636,-65.7107 L 152.887,-67.6527 L 151.581,-69.9158
 L 150.773,-72.4011 L 150.5,-75 L 150.773,-77.5989 L 151.581,-80.0842 L 152.887,-82.3473 L 154.636,-84.2893
 L 156.75,-85.8253 L 159.137,-86.8882 L 161.693,-87.4315 L 164.307,-87.4315 L 166.863,-86.8882 L 169.25,-85.8253
 L 171.364,-84.2893 L 173.113,-82.3473 L 174.419,-80.0842 L 175.227,-77.5989 L 175.5,-75 L 175.227,-72.4011
 L 174.419,-69.9158 L 173.113,-67.6527 L 171.364,-65.7107 L 169.25,-64.1747 L 166.863,-63.1118 L 164.307,-62.5685
 z
M 216,-56 L 216,-68 L 220,-68 L 220,-56 z
M 180,-56 L 180,-68 L 184,-68 L 184,-56 z
M 144,-56 L 144,-68 L 148,-68 L 148,-56 z
M 72,-56 L 72,-68 L 76,-68 L 76,-56 z
M 36,-56 L 36,-68 L 40,-68 L 40,-56 z
M 108,-56 L 108,-68 L 112,-68 L 112,-56 z
M 89.6934,-32.5685 L 87.1373,-33.1118 L 84.75,-34.1747 L 82.6359,-35.7107 L 80.8873,-37.6527 L 79.5807,-39.9158
 L 78.7731,-42.4011 L 78.5,-45 L 78.7731,-47.5989 L 79.5807,-50.0842 L 80.8873,-52.3473 L 82.6359,-54.2893
 L 84.75,-55.8253 L 87.1373,-56.8882 L 89.6934,-57.4315 L 92.3066,-57.4315 L 94.8627,-56.8882 L 97.25,-55.8253
 L 99.3641,-54.2893 L 101.113,-52.3473 L 102.419,-50.0842 L 103.227,-47.5989 L 103.5,-45 L 103.227,-42.4011
 L 102.419,-39.9158 L 101.113,-37.6527 L 99.3641,-35.7107 L 97.25,-34.1747 L 94.8627,-33.1118 L 92.3066,-32.5685
 z
M 125.693,-32.5685 L 123.137,-33.1118 L 120.75,-34.1747 L 118.636,-35.7107 L 116.887,-37.6527 L 115.581,-39.9158
 L 114.773,-42.4011 L 114.5,-45 L 114.773,-47.5989 L 115.581,-50.0842 L 116.887,-52.3473 L 118.636,-54.2893
 L 120.75,-55.8253 L 123.137,-56.8882 L 125.693,-57.4315 L 128.307,-57.4315 L 130.863,-56.8882 L 133.25,-55.8253
 L 135.364,-54.2893 L 137.113,-52.3473 L 138.419,-50.0842 L 139.227,-47.5989 L 139.5,-45 L 139.227,-42.4011
 L 138.419,-39.9158 L 137.113,-37.6527 L 135.364,-35.7107 L 133.25,-34.1747 L 130.863,-33.1118 L 128.307,-32.5685
 z
M 233.693,-32.5685 L 231.137,-33.1118 L 228.75,-34.1747 L 226.636,-35.7107 L 224.887,-37.6527 L 223.581,-39.9158
 L 222.773,-42.4011 L 222.5,-45 L 222.773,-47.5989 L 223.581,-50.0842 L 224.887,-52.3473 L 226.636,-54.2893
 L 228.75,-55.8253 L 231.137,-56.8882 L 233.693,-57.4315 L 236.307,-57.4315 L 238.863,-56.8882 L 241.25,-55.8253
 L 243.364,-54.2893 L 245.113,-52.3473 L 246.419,-50.0842 L 247.227,-47.5989 L 247.5,-45 L 247.227,-42.4011
 L 246.419,-39.9158 L 245.113,-37.6527 L 243.364,-35.7107 L 241.25,-34.1747 L 238.863,-33.1118 L 236.307,-32.5685
 z
M 17.6934,-32.5685 L 15.1373,-33.1118 L 12.75,-34.1747 L 10.6359,-35.7107 L 8.88728,-37.6527 L 7.58067,-39.9158
 L 6.77315,-42.4011 L 6.5,-45 L 6.77315,-47.5989 L 7.58067,-50.0842 L 8.88728,-52.3473 L 10.6359,-54.2893
 L 12.75,-55.8253 L 15.1373,-56.8882 L 17.6934,-57.4315 L 20.3066,-57.4315 L 22.8627,-56.8882 L 25.25,-55.8253
 L 27.3641,-54.2893 L 29.1127,-52.3473 L 30.4193,-50.0842 L 31.2268,-47.5989 L 31.5,-45 L 31.2268,-42.4011
 L 30.4193,-39.9158 L 29.1127,-37.6527 L 27.3641,-35.7107 L 25.25,-34.1747 L 22.8627,-33.1118 L 20.3066,-32.5685
 z
M 197.693,-32.5685 L 195.137,-33.1118 L 192.75,-34.1747 L 190.636,-35.7107 L 188.887,-37.6527 L 187.581,-39.9158
 L 186.773,-42.4011 L 186.5,-45 L 186.773,-47.5989 L 187.581,-50.0842 L 188.887,-52.3473 L 190.636,-54.2893
 L 192.75,-55.8253 L 195.137,-56.8882 L 197.693,-57.4315 L 200.307,-57.4315 L 202.863,-56.8882 L 205.25,-55.8253
 L 207.364,-54.2893 L 209.113,-52.3473 L 210.419,-50.0842 L 211.227,-47.5989 L 211.5,-45 L 211.227,-42.4011
 L 210.419,-39.9158 L 209.113,-37.6527 L 207.364,-35.7107 L 205.25,-34.1747 L 202.863,-33.1118 L 200.307,-32.5685
 z
M 53.6934,-32.5685 L 51.1373,-33.1118 L 48.75,-34.1747 L 46.6359,-35.7107 L 44.8873,-37.6527 L 43.5807,-39.9158
 L 42.7731,-42.4011 L 42.5,-45 L 42.7731,-47.5989 L 43.5807,-50.0842 L 44.8873,-52.3473 L 46.6359,-54.2893
 L 48.75,-55.8253 L 51.1373,-56.8882 L 53.6934,-57.4315 L 56.3066,-57.4315 L 58.8627,-56.8882 L 61.25,-55.8253
 L 63.3641,-54.2893 L 65.1127,-52.3473 L 66.4193,-50.0842 L 67.2268,-47.5989 L 67.5,-45 L 67.2268,-42.4011
 L 66.4193,-39.9158 L 65.1127,-37.6527 L 63.3641,-35.7107 L 61.25,-34.1747 L 58.8627,-33.1118 L 56.3066,-32.5685
 z
M 161.693,-32.5685 L 159.137,-33.1118 L 156.75,-34.1747 L 154.636,-35.7107 L 152.887,-37.6527 L 151.581,-39.9158
 L 150.773,-42.4011 L 150.5,-45 L 150.773,-47.5989 L 151.581,-50.0842 L 152.887,-52.3473 L 154.636,-54.2893
 L 156.75,-55.8253 L 159.137,-56.8882 L 161.693,-57.4315 L 164.307,-57.4315 L 166.863,-56.8882 L 169.25,-55.8253
 L 171.364,-54.2893 L 173.113,-52.3473 L 174.419,-50.0842 L 175.227,-47.5989 L 175.5,-45 L 175.227,-42.4011
 L 174.419,-39.9158 L 173.113,-37.6527 L 171.364,-35.7107 L 169.25,-34.1747 L 166.863,-33.1118 L 164.307,-32.5685
 z
M 180,-28 L 180,-40 L 184,-40 L 184,-28 z
M 108,-28 L 108,-40 L 112,-40 L 112,-28 z
M 144,-28 L 144,-40 L 148,-40 L 148,-28 z
M 36,-28 L 36,-40 L 40,-40 L 40,-28 z
M 216,-28 L 216,-40 L 220,-40 L 220,-28 z
M 72,-28 L 72,-40 L 76,-40 L 76,-28 z
M 89.6934,-2.56847 L 87.1373,-3.11179 L 84.75,-4.17467 L 82.6359,-5.71068 L 80.8873,-7.65268 L 79.5807,-9.91579
 L 78.7731,-12.4011 L 78.5,-15 L 78.7731,-17.5989 L 79.5807,-20.0842 L 80.8873,-22.3473 L 82.6359,-24.2893
 L 84.75,-25.8253 L 87.1373,-26.8882 L 89.6934,-27.4315 L 92.3066,-27.4315 L 94.8627,-26.8882 L 97.25,-25.8253
 L 99.3641,-24.2893 L 101.113,-22.3473 L 102.419,-20.0842 L 103.227,-17.5989 L 103.5,-15 L 103.227,-12.4011
 L 102.419,-9.91579 L 101.113,-7.65268 L 99.3641,-5.71068 L 97.25,-4.17467 L 94.8627,-3.11179 L 92.3066,-2.56847
 z
M 17.6934,-2.56847 L 15.1373,-3.11179 L 12.75,-4.17467 L 10.6359,-5.71068 L 8.88728,-7.65268 L 7.58067,-9.91579
 L 6.77315,-12.4011 L 6.5,-15 L 6.77315,-17.5989 L 7.58067,-20.0842 L 8.88728,-22.3473 L 10.6359,-24.2893
 L 12.75,-25.8253 L 15.1373,-26.8882 L 17.6934,-27.4315 L 20.3066,-27.4315 L 22.8627,-26.8882 L 25.25,-25.8253
 L 27.3641,-24.2893 L 29.1127,-22.3473 L 30.4193,-20.0842 L 31.2268,-17.5989 L 31.5,-15 L 31.2268,-12.4011
 L 30.4193,-9.91579 L 29.1127,-7.65268 L 27.3641,-5.71068 L 25.25,-4.17467 L 22.8627,-3.11179 L 20.3066,-2.56847
 z
M 161.693,-2.56847 L 159.137,-3.11179 L 156.75,-4.17467 L 154.636,-5.71068 L 152.887,-7.65268 L 151.581,-9.91579
 L 150.773,-12.4011 L 150.5,-15 L 150.773,-17.5989 L 151.581,-20.0842 L 152.887,-22.3473 L 154.636,-24.2893
 L 156.75,-25.8253 L 159.137,-26.8882 L 161.693,-27.4315 L 164.307,-27.4315 L 166.863,-26.8882 L 169.25,-25.8253
 L 171.364,-24.2893 L 173.113,-22.3473 L 174.419,-20.0842 L 175.227,-17.5989 L 175.5,-15 L 175.227,-12.4011
 L 174.419,-9.91579 L 173.113,-7.65268 L 171.364,-5.71068 L 169.25,-4.17467 L 166.863,-3.11179 L 164.307,-2.56847
 z
M 197.693,-2.56847 L 195.137,-3.11179 L 192.75,-4.17467 L 190.636,-5.71068 L 188.887,-7.65268 L 187.581,-9.91579
 L 186.773,-12.4011 L 186.5,-15 L 186.773,-17.5989 L 187.581,-20.0842 L 188.887,-22.3473 L 190.636,-24.2893
 L 192.75,-25.8253 L 195.137,-26.8882 L 197.693,-27.4315 L 200.307,-27.4315 L 202.863,-26.8882 L 205.25,-25.8253
 L 207.364,-24.2893 L 209.113,-22.3473 L 210.419,-20.0842 L 211.227,-17.5989 L 211.5,-15 L 211.227,-12.4011
 L 210.419,-9.91579 L 209.113,-7.65268 L 207.364,-5.71068 L 205.25,-4.17467 L 202.863,-3.11179 L 200.307,-2.56847
 z
M 53.6934,-2.56847 L 51.1373,-3.11179 L 48.75,-4.17467 L 46.6359,-5.71068 L 44.8873,-7.65268 L 43.5807,-9.91579
 L 42.7731,-12.4011 L 42.5,-15 L 42.7731,-17.5989 L 43.5807,-20.0842 L 44.8873,-22.3473 L 46.6359,-24.2893
 L 48.75,-25.8253 L 51.1373,-26.8882 L 53.6934,-27.4315 L 56.3066,-27.4315 L 58.8627,-26.8882 L 61.25,-25.8253
 L 63.3641,-24.2893 L 65.1127,-22.3473 L 66.4193,-20.0842 L 67.2268,-17.5989 L 67.5,-15 L 67.2268,-12.4011
 L 66.4193,-9.91579 L 65.1127,-7.65268 L 63.3641,-5.71068 L 61.25,-4.17467 L 58.8627,-3.11179 L 56.3066,-2.56847
 z
M 233.693,-2.56847 L 231.137,-3.11179 L 228.75,-4.17467 L 226.636,-5.71068 L 224.887,-7.65268 L 223.581,-9.91579
 L 222.773,-12.4011 L 222.5,-15 L 222.773,-17.5989 L 223.581,-20.0842 L 224.887,-22.3473 L 226.636,-24.2893
 L 228.75,-25.8253 L 231.137,-26.8882 L 233.693,-27.4315 L 236.307,-27.4315 L 238.863,-26.8882 L 241.25,-25.8253
 L 243.364,-24.2893 L 245.113,-22.3473 L 246.419,-20.0842 L 247.227,-17.5989 L 247.5,-15 L 247.227,-12.4011
 L 246.419,-9.91579 L 245.113,-7.65268 L 243.364,-5.71068 L 241.25,-4.17467 L 238.863,-3.11179 L 236.307,-2.56847
 z
M 125.693,-2.56847 L 123.137,-3.11179 L 120.75,-4.17467 L 118.636,-5.71068 L 116.887,-7.65268 L 115.581,-9.91579
 L 114.773,-12.4011 L 114.5,-15 L 114.773,-17.5989 L 115.581,-20.0842 L 116.887,-22.3473 L 118.636,-24.2893
 L 120.75,-25.8253 L 123.137,-26.8882 L 125.693,-27.4315 L 128.307,-27.4315 L 130.863,-26.8882 L 133.25,-25.8253
 L 135.364,-24.2893 L 137.113,-22.3473 L 138.419,-20.0842 L 139.227,-17.5989 L 139.5,-15 L 139.227,-12.4011
 L 138.419,-9.91579 L 137.113,-7.65268 L 135.364,-5.71068 L 133.25,-4.17467 L 130.863,-3.11179 L 128.307,-2.56847
 z
M 269.5,-12 L 265.5,-12 L 265.5,-28 L 269.5,-28 L 269.5,-40 L 265.5,-40
 L 265.5,-56 L 269.5,-56 L 269.5,-68 L 265.5,-68 L 265.5,-84 L 269.5,-84
 L 269.5,-96 L 265.5,-96 L 265.5,-112 L 269.5,-112 L 269.5,-124 L 265.5,-124
 L 265.5,-140 L 269.5,-140 L 269.5,-152 L 265.5,-152 L 265.5,-168 L 269.5,-168
 L 269.5,-180 L 255.5,-180 L 255.5,-168 L 259.5,-168 L 259.5,-152 L 255.5,-152
 L 255.5,-140 L 259.5,-140 L 259.5,-124 L 255.5,-124 L 255.5,-112 L 259.5,-112
 L 259.5,-96 L 255.5,-96 L 255.5,-84 L 259.5,-84 L 259.5,-68 L 255.5,-68
 L 255.5,-56 L 259.5,-56 L 259.5,-40 L 255.5,-40 L 255.5,-28 L 259.5,-28
 L 259.5,-12 L 255.5,-12 L 255.5,-0 L 269.5,-0 z
M 284.5,-12 L 280.5,-12 L 280.5,-28 L 284.5,-28 L 284.5,-40 L 280.5,-40
 L 280.5,-56 L 284.5,-56 L 284.5,-68 L 280.5,-68 L 280.5,-84 L 284.5,-84
 L 284.5,-96 L 280.5,-96 L 280.5,-112 L 284.5,-112 L 284.5,-124 L 280.5,-124
 L 280.5,-140 L 284.5,-140 L 284.5,-152 L 280.5,-152 L 280.5,-168 L 284.5,-168
 L 284.5,-180 L 270.5,-180 L 270.5,-168 L 274.5,-168 L 274.5,-152 L 270.5,-152
 L 270.5,-140 L 274.5,-140 L 274.5,-124 L 270.5,-124 L 270.5,-112 L 274.5,-112
 L 274.5,-96 L 270.5,-96 L 270.5,-84 L 274.5,-84 L 274.5,-68 L 270.5,-68
 L 270.5,-56 L 274.5,-56 L 274.5,-40 L 270.5,-40 L 270.5,-28 L 274.5,-28
 L 274.5,-12 L 270.5,-12 L 270.5,-0 L 284.5,-0 z
M 344.5,-12 L 340.5,-12 L 340.5,-28 L 344.5,-28 L 344.5,-40 L 340.5,-40
 L 340.5,-56 L 344.5,-56 L 344.5,-68 L 340.5,-68 L 340.5,-84 L 344.5,-84
 L 344.5,-96 L 340.5,-96 L 340.5,-112 L 344.5,-112 L 344.5,-124 L 340.5,-124
 L 340.5,-140 L 344.5,-140 L 344.5,-152 L 340.5,-152 L 340.5,-168 L 344.5,-168
 L 344.5,-180 L 330.5,-180 L 330.5,-168 L 334.5,-168 L 334.5,-152 L 330.5,-152
 L 330.5,-140 L 334.5,-140 L 334.5,-124 L 330.5,-124 L 330.5,-112 L 334.5,-112
 L 334.5,-96 L 330.5,-96 L 330.5,-84 L 334.5,-84 L 334.5,-68 L 330.5,-68
 L 330.5,-56 L 334.5,-56 L 334.5,-40 L 330.5,-40 L 330.5,-28 L 334.5,-28
 L 334.5,-12 L 330.5,-12 L 330.5,-0 L 344.5,-0 z
M 329.5,-12 L 325.5,-12 L 325.5,-28 L 329.5,-28 L 329.5,-40 L 325.5,-40
 L 325.5,-56 L 329.5,-56 L 329.5,-68 L 325.5,-68 L 325.5,-84 L 329.5,-84
 L 329.5,-96 L 325.5,-96 L 325.5,-112 L 329.5,-112 L 329.5,-124 L 325.5,-124
 L 325.5,-140 L 329.5,-140 L 329.5,-152 L 325.5,-152 L 325.5,-168 L 329.5,-168
 L 329.5,-180 L 315.5,-180 L 315.5,-168 L 319.5,-168 L 319.5,-152 L 315.5,-152
 L 315.5,-140 L 319.5,-140 L 319.5,-124 L 315.5,-124 L 315.5,-112 L 319.5,-112
 L 319.5,-96 L 315.5,-96 L 315.5,-84 L 319.5,-84 L 319.5,-68 L 315.5,-68
 L 315.5,-56 L 319.5,-56 L 319.5,-40 L 315.5,-40 L 315.5,-28 L 319.5,-28
 L 319.5,-12 L 315.5,-12 L 315.5,-0 L 329.5,-0 z
M 314.5,-12 L 310.5,-12 L 310.5,-28 L 314.5,-28 L 314.5,-40 L 310.5,-40
 L 310.5,-56 L 314.5,-56 L 314.5,-68 L 310.5,-68 L 310.5,-84 L 314.5,-84
 L 314.5,-96 L 310.5,-96 L 310.5,-112 L 314.5,-112 L 314.5,-124 L 310.5,-124
 L 310.5,-140 L 314.5,-140 L 314.5,-152 L 310.5,-152 L 310.5,-168 L 314.5,-168
 L 314.5,-180 L 300.5,-180 L 300.5,-168 L 304.5,-168 L 304.5,-152 L 300.5,-152
 L 300.5,-140 L 304.5,-140 L 304.5,-124 L 300.5,-124 L 300.5,-112 L 304.5,-112
 L 304.5,-96 L 300.5,-96 L 300.5,-84 L 304.5,-84 L 304.5,-68 L 300.5,-68
 L 300.5,-56 L 304.5,-56 L 304.5,-40 L 300.5,-40 L 300.5,-28 L 304.5,-28
 L 304.5,-12 L 300.5,-12 L 300.5,-0 L 314.5,-0 z
M 299.5,-12 L 295.5,-12 L 295.5,-28 L 299.5,-28 L 299.5,-40 L 295.5,-40
 L 295.5,-56 L 299.5,-56 L 299.5,-68 L 295.5,-68 L 295.5,-84 L 299.5,-84
 L 299.5,-96 L 295.5,-96 L 295.5,-112 L 299.5,-112 L 299.5,-124 L 295.5,-124
 L 295.5,-140 L 299.5,-140 L 299.5,-152 L 295.5,-152 L 295.5,-168 L 299.5,-168
 L 299.5,-180 L 285.5,-180 L 285.5,-168 L 289.5,-168 L 289.5,-152 L 285.5,-152
 L 285.5,-140 L 289.5,-140 L 289.5,-124 L 285.5,-124 L 285.5,-112 L 289.5,-112
 L 289.5,-96 L 285.5,-96 L 285.5,-84 L 289.5,-84 L 289.5,-68 L 285.5,-68
 L 285.5,-56 L 289.5,-56 L 289.5,-40 L 285.5,-40 L 285.5,-28 L 289.5,-28
 L 289.5,-12 L 285.5,-12 L 285.5,-0 L 299.5,-0 z
M 395.635,-121.534 L 398.5,-122.81 L 401.037,-124.653 L 403.135,-126.983 L 404.703,-129.699 L 405.672,-132.681
 L 406,-135.8 L 405.672,-138.919 L 404.703,-141.901 L 403.135,-144.617 L 401.037,-146.947 L 398.5,-148.79
 L 395.635,-150.066 L 392.568,-150.718 L 389.432,-150.718 L 386.365,-150.066 L 383.5,-148.79 L 380.963,-146.947
 L 378.865,-144.617 L 377.297,-141.901 L 376.328,-138.919 L 376,-135.8 L 376.328,-132.681 L 377.297,-129.699
 L 378.865,-126.983 L 380.963,-124.653 L 383.5,-122.81 L 386.365,-121.534 L 389.432,-120.882 L 392.568,-120.882
 z
M 550.635,-121.534 L 553.5,-122.81 L 556.037,-124.653 L 558.135,-126.983 L 559.703,-129.699 L 560.672,-132.681
 L 561,-135.8 L 560.672,-138.919 L 559.703,-141.901 L 558.135,-144.617 L 556.037,-146.947 L 553.5,-148.79
 L 550.635,-150.066 L 547.568,-150.718 L 544.432,-150.718 L 541.365,-150.066 L 538.5,-148.79 L 535.963,-146.947
 L 533.865,-144.617 L 532.297,-141.901 L 531.328,-138.919 L 531,-135.8 L 531.328,-132.681 L 532.297,-129.699
 L 533.865,-126.983 L 535.963,-124.653 L 538.5,-122.81 L 541.365,-121.534 L 544.432,-120.882 L 547.568,-120.882
 z
M 426.635,-121.534 L 429.5,-122.81 L 432.037,-124.653 L 434.135,-126.983 L 435.703,-129.699 L 436.672,-132.681
 L 437,-135.8 L 436.672,-138.919 L 435.703,-141.901 L 434.135,-144.617 L 432.037,-146.947 L 429.5,-148.79
 L 426.635,-150.066 L 423.568,-150.718 L 420.432,-150.718 L 417.365,-150.066 L 414.5,-148.79 L 411.963,-146.947
 L 409.865,-144.617 L 408.297,-141.901 L 407.328,-138.919 L 407,-135.8 L 407.328,-132.681 L 408.297,-129.699
 L 409.865,-126.983 L 411.963,-124.653 L 414.5,-122.81 L 417.365,-121.534 L 420.432,-120.882 L 423.568,-120.882
 z
M 457.635,-121.534 L 460.5,-122.81 L 463.037,-124.653 L 465.135,-126.983 L 466.703,-129.699 L 467.672,-132.681
 L 468,-135.8 L 467.672,-138.919 L 466.703,-141.901 L 465.135,-144.617 L 463.037,-146.947 L 460.5,-148.79
 L 457.635,-150.066 L 454.568,-150.718 L 451.432,-150.718 L 448.365,-150.066 L 445.5,-148.79 L 442.963,-146.947
 L 440.865,-144.617 L 439.297,-141.901 L 438.328,-138.919 L 438,-135.8 L 438.328,-132.681 L 439.297,-129.699
 L 440.865,-126.983 L 442.963,-124.653 L 445.5,-122.81 L 448.365,-121.534 L 451.432,-120.882 L 454.568,-120.882
 z
M 488.635,-121.534 L 491.5,-122.81 L 494.037,-124.653 L 496.135,-126.983 L 497.703,-129.699 L 498.672,-132.681
 L 499,-135.8 L 498.672,-138.919 L 497.703,-141.901 L 496.135,-144.617 L 494.037,-146.947 L 491.5,-148.79
 L 488.635,-150.066 L 485.568,-150.718 L 482.432,-150.718 L 479.365,-150.066 L 476.5,-148.79 L 473.963,-146.947
 L 471.865,-144.617 L 470.297,-141.901 L 469.328,-138.919 L 469,-135.8 L 469.328,-132.681 L 470.297,-129.699
 L 471.865,-126.983 L 473.963,-124.653 L 476.5,-122.81 L 479.365,-121.534 L 482.432,-120.882 L 485.568,-120.882
 z
M 364.635,-121.534 L 367.5,-122.81 L 370.037,-124.653 L 372.135,-126.983 L 373.703,-129.699 L 374.672,-132.681
 L 375,-135.8 L 374.672,-138.919 L 373.703,-141.901 L 372.135,-144.617 L 370.037,-146.947 L 367.5,-148.79
 L 364.635,-150.066 L 361.568,-150.718 L 358.432,-150.718 L 355.365,-150.066 L 352.5,-148.79 L 349.963,-146.947
 L 347.865,-144.617 L 346.297,-141.901 L 345.328,-138.919 L 345,-135.8 L 345.328,-132.681 L 346.297,-129.699
 L 347.865,-126.983 L 349.963,-124.653 L 352.5,-122.81 L 355.365,-121.534 L 358.432,-120.882 L 361.568,-120.882
 z
M 519.635,-121.534 L 522.5,-122.81 L 525.037,-124.653 L 527.135,-126.983 L 528.703,-129.699 L 529.672,-132.681
 L 530,-135.8 L 529.672,-138.919 L 528.703,-141.901 L 527.135,-144.617 L 525.037,-146.947 L 522.5,-148.79
 L 519.635,-150.066 L 516.568,-150.718 L 513.432,-150.718 L 510.365,-150.066 L 507.5,-148.79 L 504.963,-146.947
 L 502.865,-144.617 L 501.297,-141.901 L 500.328,-138.919 L 500,-135.8 L 500.328,-132.681 L 501.297,-129.699
 L 502.865,-126.983 L 504.963,-124.653 L 507.5,-122.81 L 510.365,-121.534 L 513.432,-120.882 L 516.568,-120.882
 z
M 395.635,-91.3342 L 398.5,-92.6096 L 401.037,-94.4528 L 403.135,-96.7832 L 404.703,-99.4989 L 405.672,-102.481
 L 406,-105.6 L 405.672,-108.719 L 404.703,-111.701 L 403.135,-114.417 L 401.037,-116.747 L 398.5,-118.59
 L 395.635,-119.866 L 392.568,-120.518 L 389.432,-120.518 L 386.365,-119.866 L 383.5,-118.59 L 380.963,-116.747
 L 378.865,-114.417 L 377.297,-111.701 L 376.328,-108.719 L 376,-105.6 L 376.328,-102.481 L 377.297,-99.4989
 L 378.865,-96.7832 L 380.963,-94.4528 L 383.5,-92.6096 L 386.365,-91.3342 L 389.432,-90.6822 L 392.568,-90.6822
 z
M 488.635,-91.3342 L 491.5,-92.6096 L 494.037,-94.4528 L 496.135,-96.7832 L 497.703,-99.4989 L 498.672,-102.481
 L 499,-105.6 L 498.672,-108.719 L 497.703,-111.701 L 496.135,-114.417 L 494.037,-116.747 L 491.5,-118.59
 L 488.635,-119.866 L 485.568,-120.518 L 482.432,-120.518 L 479.365,-119.866 L 476.5,-118.59 L 473.963,-116.747
 L 471.865,-114.417 L 470.297,-111.701 L 469.328,-108.719 L 469,-105.6 L 469.328,-102.481 L 470.297,-99.4989
 L 471.865,-96.7832 L 473.963,-94.4528 L 476.5,-92.6096 L 479.365,-91.3342 L 482.432,-90.6822 L 485.568,-90.6822
 z
M 364.635,-91.3342 L 367.5,-92.6096 L 370.037,-94.4528 L 372.135,-96.7832 L 373.703,-99.4989 L 374.672,-102.481
 L 375,-105.6 L 374.672,-108.719 L 373.703,-111.701 L 372.135,-114.417 L 370.037,-116.747 L 367.5,-118.59
 L 364.635,-119.866 L 361.568,-120.518 L 358.432,-120.518 L 355.365,-119.866 L 352.5,-118.59 L 349.963,-116.747
 L 347.865,-114.417 L 346.297,-111.701 L 345.328,-108.719 L 345,-105.6 L 345.328,-102.481 L 346.297,-99.4989
 L 347.865,-96.7832 L 349.963,-94.4528 L 352.5,-92.6096 L 355.365,-91.3342 L 358.432,-90.6822 L 361.568,-90.6822
 z
M 457.635,-91.3342 L 460.5,-92.6096 L 463.037,-94.4528 L 465.135,-96.7832 L 466.703,-99.4989 L 467.672,-102.481
 L 468,-105.6 L 467.672,-108.719 L 466.703,-111.701 L 465.135,-114.417 L 463.037,-116.747 L 460.5,-118.59
 L 457.635,-119.866 L 454.568,-120.518 L 451.432,-120.518 L 448.365,-119.866 L 445.5,-118.59 L 442.963,-116.747
 L 440.865,-114.417 L 439.297,-111.701 L 438.328,-108.719 L 438,-105.6 L 438.328,-102.481 L 439.297,-99.4989
 L 440.865,-96.7832 L 442.963,-94.4528 L 445.5,-92.6096 L 448.365,-91.3342 L 451.432,-90.6822 L 454.568,-90.6822
 z
M 550.635,-91.3342 L 553.5,-92.6096 L 556.037,-94.4528 L 558.135,-96.7832 L 559.703,-99.4989 L 560.672,-102.481
 L 561,-105.6 L 560.672,-108.719 L 559.703,-111.701 L 558.135,-114.417 L 556.037,-116.747 L 553.5,-118.59
 L 550.635,-119.866 L 547.568,-120.518 L 544.432,-120.518 L 541.365,-119.866 L 538.5,-118.59 L 535.963,-116.747
 L 533.865,-114.417 L 532.297,-111.701 L 531.328,-108.719 L 531,-105.6 L 531.328,-102.481 L 532.297,-99.4989
 L 533.865,-96.7832 L 535.963,-94.4528 L 538.5,-92.6096 L 541.365,-91.3342 L 544.432,-90.6822 L 547.568,-90.6822
 z
M 519.635,-91.3342 L 522.5,-92.6096 L 525.037,-94.4528 L 527.135,-96.7832 L 528.703,-99.4989 L 529.672,-102.481
 L 530,-105.6 L 529.672,-108.719 L 528.703,-111.701 L 527.135,-114.417 L 525.037,-116.747 L 522.5,-118.59
 L 519.635,-119.866 L 516.568,-120.518 L 513.432,-120.518 L 510.365,-119.866 L 507.5,-118.59 L 504.963,-116.747
 L 502.865,-114.417 L 501.297,-111.701 L 500.328,-108.719 L 500,-105.6 L 500.328,-102.481 L 501.297,-99.4989
 L 502.865,-96.7832 L 504.963,-94.4528 L 507.5,-92.6096 L 510.365,-91.3342 L 513.432,-90.6822 L 516.568,-90.6822
 z
M 426.635,-91.3342 L 429.5,-92.6096 L 432.037,-94.4528 L 434.135,-96.7832 L 435.703,-99.4989 L 436.672,-102.481
 L 437,-105.6 L 436.672,-108.719 L 435.703,-111.701 L 434.135,-114.417 L 432.037,-116.747 L 429.5,-118.59
 L 426.635,-119.866 L 423.568,-120.518 L 420.432,-120.518 L 417.365,-119.866 L 414.5,-118.59 L 411.963,-116.747
 L 409.865,-114.417 L 408.297,-111.701 L 407.328,-108.719 L 407,-105.6 L 407.328,-102.481 L 408.297,-99.4989
 L 409.865,-96.7832 L 411.963,-94.4528 L 414.5,-92.6096 L 417.365,-91.3342 L 420.432,-90.6822 L 423.568,-90.6822
 z
M 426.635,-61.1341 L 429.5,-62.4096 L 432.037,-64.2528 L 434.135,-66.5832 L 435.703,-69.299 L 436.672,-72.2813
 L 437,-75.4 L 436.672,-78.5187 L 435.703,-81.501 L 434.135,-84.2168 L 432.037,-86.5472 L 429.5,-88.3904
 L 426.635,-89.6658 L 423.568,-90.3178 L 420.432,-90.3178 L 417.365,-89.6658 L 414.5,-88.3904 L 411.963,-86.5472
 L 409.865,-84.2168 L 408.297,-81.501 L 407.328,-78.5187 L 407,-75.4 L 407.328,-72.2813 L 408.297,-69.299
 L 409.865,-66.5832 L 411.963,-64.2528 L 414.5,-62.4096 L 417.365,-61.1341 L 420.432,-60.4822 L 423.568,-60.4822
 z
M 395.635,-61.1341 L 398.5,-62.4096 L 401.037,-64.2528 L 403.135,-66.5832 L 404.703,-69.299 L 405.672,-72.2813
 L 406,-75.4 L 405.672,-78.5187 L 404.703,-81.501 L 403.135,-84.2168 L 401.037,-86.5472 L 398.5,-88.3904
 L 395.635,-89.6658 L 392.568,-90.3178 L 389.432,-90.3178 L 386.365,-89.6658 L 383.5,-88.3904 L 380.963,-86.5472
 L 378.865,-84.2168 L 377.297,-81.501 L 376.328,-78.5187 L 376,-75.4 L 376.328,-72.2813 L 377.297,-69.299
 L 378.865,-66.5832 L 380.963,-64.2528 L 383.5,-62.4096 L 386.365,-61.1341 L 389.432,-60.4822 L 392.568,-60.4822
 z
M 364.635,-61.1341 L 367.5,-62.4096 L 370.037,-64.2528 L 372.135,-66.5832 L 373.703,-69.299 L 374.672,-72.2813
 L 375,-75.4 L 374.672,-78.5187 L 373.703,-81.501 L 372.135,-84.2168 L 370.037,-86.5472 L 367.5,-88.3904
 L 364.635,-89.6658 L 361.568,-90.3178 L 358.432,-90.3178 L 355.365,-89.6658 L 352.5,-88.3904 L 349.963,-86.5472
 L 347.865,-84.2168 L 346.297,-81.501 L 345.328,-78.5187 L 345,-75.4 L 345.328,-72.2813 L 346.297,-69.299
 L 347.865,-66.5832 L 349.963,-64.2528 L 352.5,-62.4096 L 355.365,-61.1341 L 358.432,-60.4822 L 361.568,-60.4822
 z
M 550.635,-61.1341 L 553.5,-62.4096 L 556.037,-64.2528 L 558.135,-66.5832 L 559.703,-69.299 L 560.672,-72.2813
 L 561,-75.4 L 560.672,-78.5187 L 559.703,-81.501 L 558.135,-84.2168 L 556.037,-86.5472 L 553.5,-88.3904
 L 550.635,-89.6658 L 547.568,-90.3178 L 544.432,-90.3178 L 541.365,-89.6658 L 538.5,-88.3904 L 535.963,-86.5472
 L 533.865,-84.2168 L 532.297,-81.501 L 531.328,-78.5187 L 531,-75.4 L 531.328,-72.2813 L 532.297,-69.299
 L 533.865,-66.5832 L 535.963,-64.2528 L 538.5,-62.4096 L 541.365,-61.1341 L 544.432,-60.4822 L 547.568,-60.4822
 z
M 488.635,-61.1341 L 491.5,-62.4096 L 494.037,-64.2528 L 496.135,-66.5832 L 497.703,-69.299 L 498.672,-72.2813
 L 499,-75.4 L 498.672,-78.5187 L 497.703,-81.501 L 496.135,-84.2168 L 494.037,-86.5472 L 491.5,-88.3904
 L 488.635,-89.6658 L 485.568,-90.3178 L 482.432,-90.3178 L 479.365,-89.6658 L 476.5,-88.3904 L 473.963,-86.5472
 L 471.865,-84.2168 L 470.297,-81.501 L 469.328,-78.5187 L 469,-75.4 L 469.328,-72.2813 L 470.297,-69.299
 L 471.865,-66.5832 L 473.963,-64.2528 L 476.5,-62.4096 L 479.365,-61.1341 L 482.432,-60.4822 L 485.568,-60.4822
 z
M 519.635,-61.1341 L 522.5,-62.4096 L 525.037,-64.2528 L 527.135,-66.5832 L 528.703,-69.299 L 529.672,-72.2813
 L 530,-75.4 L 529.672,-78.5187 L 528.703,-81.501 L 527.135,-84.2168 L 525.037,-86.5472 L 522.5,-88.3904
 L 519.635,-89.6658 L 516.568,-90.3178 L 513.432,-90.3178 L 510.365,-89.6658 L 507.5,-88.3904 L 504.963,-86.5472
 L 502.865,-84.2168 L 501.297,-81.501 L 500.328,-78.5187 L 500,-75.4 L 500.328,-72.2813 L 501.297,-69.299
 L 502.865,-66.5832 L 504.963,-64.2528 L 507.5,-62.4096 L 510.365,-61.1341 L 513.432,-60.4822 L 516.568,-60.4822
 z
M 457.635,-61.1341 L 460.5,-62.4096 L 463.037,-64.2528 L 465.135,-66.5832 L 466.703,-69.299 L 467.672,-72.2813
 L 468,-75.4 L 467.672,-78.5187 L 466.703,-81.501 L 465.135,-84.2168 L 463.037,-86.5472 L 460.5,-88.3904
 L 457.635,-89.6658 L 454.568,-90.3178 L 451.432,-90.3178 L 448.365,-89.6658 L 445.5,-88.3904 L 442.963,-86.5472
 L 440.865,-84.2168 L 439.297,-81.501 L 438.328,-78.5187 L 438,-75.4 L 438.328,-72.2813 L 439.297,-69.299
 L 440.865,-66.5832 L 442.963,-64.2528 L 445.5,-62.4096 L 448.365,-61.1341 L 451.432,-60.4822 L 454.568,-60.4822
 z
M 457.635,-30.9341 L 460.5,-32.2096 L 463.037,-34.0528 L 465.135,-36.3832 L 466.703,-39.0989 L 467.672,-42.0813
 L 468,-45.2 L 467.672,-48.3187 L 466.703,-51.301 L 465.135,-54.0168 L 463.037,-56.3472 L 460.5,-58.1904
 L 457.635,-59.4658 L 454.568,-60.1178 L 451.432,-60.1178 L 448.365,-59.4658 L 445.5,-58.1904 L 442.963,-56.3472
 L 440.865,-54.0168 L 439.297,-51.301 L 438.328,-48.3187 L 438,-45.2 L 438.328,-42.0813 L 439.297,-39.0989
 L 440.865,-36.3832 L 442.963,-34.0528 L 445.5,-32.2096 L 448.365,-30.9341 L 451.432,-30.2822 L 454.568,-30.2822
 z
M 364.635,-30.9341 L 367.5,-32.2096 L 370.037,-34.0528 L 372.135,-36.3832 L 373.703,-39.0989 L 374.672,-42.0813
 L 375,-45.2 L 374.672,-48.3187 L 373.703,-51.301 L 372.135,-54.0168 L 370.037,-56.3472 L 367.5,-58.1904
 L 364.635,-59.4658 L 361.568,-60.1178 L 358.432,-60.1178 L 355.365,-59.4658 L 352.5,-58.1904 L 349.963,-56.3472
 L 347.865,-54.0168 L 346.297,-51.301 L 345.328,-48.3187 L 345,-45.2 L 345.328,-42.0813 L 346.297,-39.0989
 L 347.865,-36.3832 L 349.963,-34.0528 L 352.5,-32.2096 L 355.365,-30.9341 L 358.432,-30.2822 L 361.568,-30.2822
 z
M 519.635,-30.9341 L 522.5,-32.2096 L 525.037,-34.0528 L 527.135,-36.3832 L 528.703,-39.0989 L 529.672,-42.0813
 L 530,-45.2 L 529.672,-48.3187 L 528.703,-51.301 L 527.135,-54.0168 L 525.037,-56.3472 L 522.5,-58.1904
 L 519.635,-59.4658 L 516.568,-60.1178 L 513.432,-60.1178 L 510.365,-59.4658 L 507.5,-58.1904 L 504.963,-56.3472
 L 502.865,-54.0168 L 501.297,-51.301 L 500.328,-48.3187 L 500,-45.2 L 500.328,-42.0813 L 501.297,-39.0989
 L 502.865,-36.3832 L 504.963,-34.0528 L 507.5,-32.2096 L 510.365,-30.9341 L 513.432,-30.2822 L 516.568,-30.2822
 z
M 395.635,-30.9341 L 398.5,-32.2096 L 401.037,-34.0528 L 403.135,-36.3832 L 404.703,-39.0989 L 405.672,-42.0813
 L 406,-45.2 L 405.672,-48.3187 L 404.703,-51.301 L 403.135,-54.0168 L 401.037,-56.3472 L 398.5,-58.1904
 L 395.635,-59.4658 L 392.568,-60.1178 L 389.432,-60.1178 L 386.365,-59.4658 L 383.5,-58.1904 L 380.963,-56.3472
 L 378.865,-54.0168 L 377.297,-51.301 L 376.328,-48.3187 L 376,-45.2 L 376.328,-42.0813 L 377.297,-39.0989
 L 378.865,-36.3832 L 380.963,-34.0528 L 383.5,-32.2096 L 386.365,-30.9341 L 389.432,-30.2822 L 392.568,-30.2822
 z
M 426.635,-30.9341 L 429.5,-32.2096 L 432.037,-34.0528 L 434.135,-36.3832 L 435.703,-39.0989 L 436.672,-42.0813
 L 437,-45.2 L 436.672,-48.3187 L 435.703,-51.301 L 434.135,-54.0168 L 432.037,-56.3472 L 429.5,-58.1904
 L 426.635,-59.4658 L 423.568,-60.1178 L 420.432,-60.1178 L 417.365,-59.4658 L 414.5,-58.1904 L 411.963,-56.3472
 L 409.865,-54.0168 L 408.297,-51.301 L 407.328,-48.3187 L 407,-45.2 L 407.328,-42.0813 L 408.297,-39.0989
 L 409.865,-36.3832 L 411.963,-34.0528 L 414.5,-32.2096 L 417.365,-30.9341 L 420.432,-30.2822 L 423.568,-30.2822
 z
M 488.635,-30.9341 L 491.5,-32.2096 L 494.037,-34.0528 L 496.135,-36.3832 L 497.703,-39.0989 L 498.672,-42.0813
 L 499,-45.2 L 498.672,-48.3187 L 497.703,-51.301 L 496.135,-54.0168 L 494.037,-56.3472 L 491.5,-58.1904
 L 488.635,-59.4658 L 485.568,-60.1178 L 482.432,-60.1178 L 479.365,-59.4658 L 476.5,-58.1904 L 473.963,-56.3472
 L 471.865,-54.0168 L 470.297,-51.301 L 469.328,-48.3187 L 469,-45.2 L 469.328,-42.0813 L 470.297,-39.0989
 L 471.865,-36.3832 L 473.963,-34.0528 L 476.5,-32.2096 L 479.365,-30.9341 L 482.432,-30.2822 L 485.568,-30.2822
 z
M 550.635,-30.9341 L 553.5,-32.2096 L 556.037,-34.0528 L 558.135,-36.3832 L 559.703,-39.0989 L 560.672,-42.0813
 L 561,-45.2 L 560.672,-48.3187 L 559.703,-51.301 L 558.135,-54.0168 L 556.037,-56.3472 L 553.5,-58.1904
 L 550.635,-59.4658 L 547.568,-60.1178 L 544.432,-60.1178 L 541.365,-59.4658 L 538.5,-58.1904 L 535.963,-56.3472
 L 533.865,-54.0168 L 532.297,-51.301 L 531.328,-48.3187 L 531,-45.2 L 531.328,-42.0813 L 532.297,-39.0989
 L 533.865,-36.3832 L 535.963,-34.0528 L 538.5,-32.2096 L 541.365,-30.9341 L 544.432,-30.2822 L 547.568,-30.2822
 z
M 395.635,-0.734146 L 398.5,-2.00961 L 401.037,-3.85281 L 403.135,-6.18321 L 404.703,-8.89894 L 405.672,-11.8813
 L 406,-15 L 405.672,-18.1187 L 404.703,-21.101 L 403.135,-23.8168 L 401.037,-26.1472 L 398.5,-27.9904
 L 395.635,-29.2658 L 392.568,-29.9178 L 389.432,-29.9178 L 386.365,-29.2658 L 383.5,-27.9904 L 380.963,-26.1472
 L 378.865,-23.8168 L 377.297,-21.101 L 376.328,-18.1187 L 376,-15 L 376.328,-11.8813 L 377.297,-8.89894
 L 378.865,-6.18321 L 380.963,-3.85281 L 383.5,-2.00961 L 386.365,-0.734146 L 389.432,-0.0821686 L 392.568,-0.0821686
 z
M 519.635,-0.734146 L 522.5,-2.00961 L 525.037,-3.85281 L 527.135,-6.18321 L 528.703,-8.89894 L 529.672,-11.8813
 L 530,-15 L 529.672,-18.1187 L 528.703,-21.101 L 527.135,-23.8168 L 525.037,-26.1472 L 522.5,-27.9904
 L 519.635,-29.2658 L 516.568,-29.9178 L 513.432,-29.9178 L 510.365,-29.2658 L 507.5,-27.9904 L 504.963,-26.1472
 L 502.865,-23.8168 L 501.297,-21.101 L 500.328,-18.1187 L 500,-15 L 500.328,-11.8813 L 501.297,-8.89894
 L 502.865,-6.18321 L 504.963,-3.85281 L 507.5,-2.00961 L 510.365,-0.734146 L 513.432,-0.0821686 L 516.568,-0.0821686
 z
M 488.635,-0.734146 L 491.5,-2.00961 L 494.037,-3.85281 L 496.135,-6.18321 L 497.703,-8.89894 L 498.672,-11.8813
 L 499,-15 L 498.672,-18.1187 L 497.703,-21.101 L 496.135,-23.8168 L 494.037,-26.1472 L 491.5,-27.9904
 L 488.635,-29.2658 L 485.568,-29.9178 L 482.432,-29.9178 L 479.365,-29.2658 L 476.5,-27.9904 L 473.963,-26.1472
 L 471.865,-23.8168 L 470.297,-21.101 L 469.328,-18.1187 L 469,-15 L 469.328,-11.8813 L 470.297,-8.89894
 L 471.865,-6.18321 L 473.963,-3.85281 L 476.5,-2.00961 L 479.365,-0.734146 L 482.432,-0.0821686 L 485.568,-0.0821686
 z
M 364.635,-0.734146 L 367.5,-2.00961 L 370.037,-3.85281 L 372.135,-6.18321 L 373.703,-8.89894 L 374.672,-11.8813
 L 375,-15 L 374.672,-18.1187 L 373.703,-21.101 L 372.135,-23.8168 L 370.037,-26.1472 L 367.5,-27.9904
 L 364.635,-29.2658 L 361.568,-29.9178 L 358.432,-29.9178 L 355.365,-29.2658 L 352.5,-27.9904 L 349.963,-26.1472
 L 347.865,-23.8168 L 346.297,-21.101 L 345.328,-18.1187 L 345,-15 L 345.328,-11.8813 L 346.297,-8.89894
 L 347.865,-6.18321 L 349.963,-3.85281 L 352.5,-2.00961 L 355.365,-0.734146 L 358.432,-0.0821686 L 361.568,-0.0821686
 z
M 426.635,-0.734146 L 429.5,-2.00961 L 432.037,-3.85281 L 434.135,-6.18321 L 435.703,-8.89894 L 436.672,-11.8813
 L 437,-15 L 436.672,-18.1187 L 435.703,-21.101 L 434.135,-23.8168 L 432.037,-26.1472 L 429.5,-27.9904
 L 426.635,-29.2658 L 423.568,-29.9178 L 420.432,-29.9178 L 417.365,-29.2658 L 414.5,-27.9904 L 411.963,-26.1472
 L 409.865,-23.8168 L 408.297,-21.101 L 407.328,-18.1187 L 407,-15 L 407.328,-11.8813 L 408.297,-8.89894
 L 409.865,-6.18321 L 411.963,-3.85281 L 414.5,-2.00961 L 417.365,-0.734146 L 420.432,-0.0821686 L 423.568,-0.0821686
 z
M 457.635,-0.734146 L 460.5,-2.00961 L 463.037,-3.85281 L 465.135,-6.18321 L 466.703,-8.89894 L 467.672,-11.8813
 L 468,-15 L 467.672,-18.1187 L 466.703,-21.101 L 465.135,-23.8168 L 463.037,-26.1472 L 460.5,-27.9904
 L 457.635,-29.2658 L 454.568,-29.9178 L 451.432,-29.9178 L 448.365,-29.2658 L 445.5,-27.9904 L 442.963,-26.1472
 L 440.865,-23.8168 L 439.297,-21.101 L 438.328,-18.1187 L 438,-15 L 438.328,-11.8813 L 439.297,-8.89894
 L 440.865,-6.18321 L 442.963,-3.85281 L 445.5,-2.00961 L 448.365,-0.734146 L 451.432,-0.0821686 L 454.568,-0.0821686
 z
M 550.635,-0.734146 L 553.5,-2.00961 L 556.037,-3.85281 L 558.135,-6.18321 L 559.703,-8.89894 L 560.672,-11.8813
 L 561,-15 L 560.672,-18.1187 L 559.703,-21.101 L 558.135,-23.8168 L 556.037,-26.1472 L 553.5,-27.9904
 L 550.635,-29.2658 L 547.568,-29.9178 L 544.432,-29.9178 L 541.365,-29.2658 L 538.5,-27.9904 L 535.963,-26.1472
 L 533.865,-23.8168 L 532.297,-21.101 L 531.328,-18.1187 L 531,-15 L 531.328,-11.8813 L 532.297,-8.89894
 L 533.865,-6.18321 L 535.963,-3.85281 L 538.5,-2.00961 L 541.365,-0.734146 L 544.432,-0.0821686 L 547.568,-0.0821686
 z
" stroke="black" fill="lightgray" stroke-width="0.5"/></svg>
